<svg width="1024" height="1024" viewBox="0 0 1024 1024" fill="none" xmlns="http://www.w3.org/2000/svg">
<path d="M773.663 809.151C758.442 831.665 738.941 836.295 717.966 847.723C671.843 873.621 605.526 898.201 551.293 902.238C510.531 905.986 468.594 902.862 429.077 893.691C427.048 893.222 426.013 892.178 425.098 891.956C416.476 889.926 401.926 886.645 393.59 883.792C375.908 878.216 346.106 865.675 331.564 856.844C325.358 853.24 319.005 849.446 317.546 846.42C315.33 845.013 313.258 845.733 312.619 845.457C312.613 845.452 312.608 845.446 312.602 845.441C310.559 844.558 306.45 840.616 305.381 840.014C305.22 839.924 305.52 841.57 303.199 839.65C302.992 839.478 303.644 838.916 301.542 837.54C300.977 837.194 293.303 833.617 291.288 832.284C284.475 828.013 269.849 815.671 262.64 809.47C261.526 808.532 260.571 808.359 259.394 807.362C258.785 806.847 258.227 805.666 258.04 805.507C257.217 804.828 252.1 803.501 256.503 801.08C252.659 798.057 252.686 800.162 251.923 800.848C247.889 797.397 247.572 794.01 244.94 794.778C242.284 792.21 239.656 789.598 237.057 786.943C221.332 770.874 206.98 753.481 194.241 734.989C193.922 735.204 193.602 735.42 193.283 735.635C190.11 728.43 186.535 727.688 185.972 722.752C184.077 720.739 182.203 718.704 180.349 716.65C144.697 656.519 122.883 587.954 121.432 518.612C121.376 515.69 122.17 514.95 122.163 510.145C122.159 504.845 121.349 497.35 121.717 490.341C122.015 484.195 123.472 475.206 124.332 468.425C124.521 466.893 124.133 465.724 124.155 465.551C124.291 464.536 125.113 464.58 125.252 463.599C125.418 462.426 124.989 460.928 125.202 459.572C125.984 454.504 126.64 448.96 126.759 448.321C127.328 445.246 128.245 444.702 128.295 444.45C128.977 441.047 128.046 442.204 128.236 441.359C129.249 436.966 131.601 434.222 131.172 427.866C131.794 428.17 132.416 428.473 133.038 428.775C134.392 424.284 131.998 426.923 131.885 425.919C131.82 425.505 134.336 415.692 134.586 414.959C135.359 412.355 136.248 412.51 136.317 412.286C136.474 411.744 137.247 404.88 138.983 401.731C141.022 398.017 141.409 403.194 142.024 402.301C142.122 402.15 143.159 397.973 143.875 397.591C144.641 397.161 143.568 400.701 143.833 400.722C144.004 400.722 146.99 395.226 147.461 396.603C147.977 397.74 144.588 405.38 144.526 407.193C144.513 407.49 145.671 407.245 145.639 407.502C145.386 408.504 140.843 426.975 140.6 427.819C140.345 426.748 140.094 425.675 139.849 424.598C139.508 425.878 139.174 427.159 138.847 428.443C138.87 426.523 138.909 424.599 138.962 422.673C134.459 424.532 136.606 433.712 138.492 434.407C139.353 434.72 142.662 430.209 143.052 435.113C143.423 434.456 143.794 433.8 144.168 433.146C144.092 431.622 144.025 430.096 143.968 428.566C143.521 429.479 143.077 430.393 142.636 431.31C142.444 430.898 142.252 430.485 142.061 430.071C142.214 427.261 142.4 424.446 142.617 421.627C143.146 420.277 143.862 420.756 144.245 419.836C149.139 408.446 144.735 415.566 147.169 407.898C147.893 406.908 148.622 405.923 149.354 404.943C147.522 404.837 149.57 401.726 150.099 397.398C150.501 398.06 150.906 398.72 151.312 399.378C152.768 393.312 159.671 382.39 155.54 384.545C156.267 383.292 157 382.045 157.741 380.802C157.657 379.497 157.58 378.188 157.511 376.875C158.149 375.335 158.797 373.799 159.456 372.267C159.723 372.362 159.99 372.457 160.257 372.553C159.779 373.79 159.307 375.029 158.843 376.27C160.001 375.643 161.16 375.023 162.321 374.411C162.536 373.452 162.756 372.494 162.979 371.535C160.73 375.044 161.445 369.539 160.889 367.889C161.796 364.507 164.023 363.042 164.534 362.002C164.759 361.517 164.938 354.57 166.557 358.032C167.56 354.869 168.613 351.699 169.701 348.559C170.448 347.483 171.201 346.411 171.959 345.343C171.953 348.432 176.91 341.868 174.828 347.454C173.301 351.62 171.725 352.092 170.854 354.018C170.074 355.753 170.432 357.013 169.637 358.916C164.319 371.706 160.21 382.219 155.795 394.655C154.927 397.111 154.626 399.494 154.067 401.148C153.437 403.016 153.133 400.346 152.662 402.83C152.174 405.449 152.852 406.235 152.676 406.91C152.567 407.329 151.447 408.443 151.11 409.666C149.704 414.687 148.631 422.259 148.467 422.981C148.197 423.773 144.435 438 144.246 438.688C144.11 439.04 141.434 437.75 143.838 441.506C143.71 442.512 143.587 443.518 143.467 444.524C142.933 444.264 142.398 444.003 141.864 443.741C142.977 450.036 142.12 447.783 141.399 453.53C139.646 467.269 137.358 487.591 137.367 502.756C137.355 506.14 138.023 507.433 138.08 511.423C138.099 515.118 136.351 524.885 139.12 522.681C136.981 531.034 141.332 532.121 138.97 536.402C139.387 536.874 139.806 537.345 140.225 537.814C138.927 542.402 140.485 543.678 141.169 548.506C141.476 550.587 139.471 548.368 141.874 552.376C141.821 553.198 141.771 554.02 141.723 554.843C141.28 554.707 140.838 554.569 140.395 554.431C141.305 559.089 141.15 559.413 142.646 558.675C142.654 560.968 142.684 563.269 142.734 565.564C143.29 565.767 143.847 565.97 144.403 566.171C144.411 565.063 138.67 513.846 139.218 506.538C140.371 498.123 139.857 481.146 140.876 474.361C141.251 471.654 142.536 470.576 143.126 466.663C143.715 462.754 143.334 457.671 143.608 455.572C144.155 448.514 151.264 415.977 148.117 438.421C148.803 437.894 149.491 437.37 150.18 436.85C150.075 427.702 150.583 431.099 152.444 423.915C153.226 420.891 153.859 413.372 156.28 414.446C155.26 420.145 153.026 425.921 151.995 430.853C151.882 431.345 151.82 437.4 150.944 440.34C150.15 442.993 148.025 440.69 149.729 447.096C146.291 451.047 148.353 454.013 148.438 455.205C148.592 457.282 147.23 457.31 146.794 459.312C146.321 461.493 147.016 463.124 146.984 463.425C146.528 466.437 145.159 482.21 144.644 482.905C144.452 482.252 144.263 481.597 144.075 480.942C143.381 485.03 144.826 484.266 144.914 485.356C144.856 486.159 144.8 486.962 144.747 487.765C144.482 487.43 144.217 487.094 143.952 486.757C143.733 491.62 144.901 487.958 144.561 494.842C144.36 499.21 143.198 503.714 143.273 504.145C143.294 504.27 144.049 502.903 144.12 504.69C144.229 507.647 144.228 512.748 143.242 513.332C143.397 514.781 144.374 514.645 144.399 514.837C144.438 515.679 145.251 530.098 145.544 532.665C146.136 539.8 146.642 547.764 147.76 555.443C147.874 556.233 147.189 555.805 147.309 556.597C147.487 557.874 149.37 564.268 149.599 565.22C150.116 567.619 150.801 574.047 151.273 574.996C151.338 575.129 151.801 572.896 152.493 575.288C153.27 577.94 151.886 576.69 151.901 576.839C152.539 582.431 154.044 585.731 155.01 589.429C155.322 590.626 154.991 593.048 155.64 594.696C155.714 594.886 156.394 594.316 156.477 594.499C157.485 596.971 156.655 599.714 156.845 600.85C157.313 603.621 157.987 601.872 158.03 602.012C158.527 603.805 158.788 606.329 159.6 609.048C163.244 621.148 166.525 630.922 171.29 643.469C171.891 645.044 171.926 647.19 172.022 647.432C172.326 648.17 173.072 647.629 173.924 649.763C175.724 654.266 177.556 658.382 179.539 662.773C179.939 663.656 179.356 664.381 179.652 665.062C180.626 667.355 186.286 673.968 183.939 675.3C188.298 678.623 187.978 682.453 189.889 685.932C194.375 694.205 202.393 706.526 207.392 714.459C208.429 716.129 208.375 717.283 208.963 718.211C209.974 719.895 216.874 728.858 217.159 729.357C217.68 730.399 214.792 731.71 220.53 734.831C222.811 737.477 221.577 737.921 221.969 738.535C225.072 743.32 230.75 745.727 228.113 746.581C232.844 751.183 236.726 753.41 236.721 757.021C237.577 756.217 240.149 758.055 242.33 761.068C238.326 759.603 237.644 760.839 231.799 753.601C231.708 753.487 232.532 753.143 232.441 753.029C231.619 751.993 229.501 750.177 228.096 748.42C226.693 746.664 227.938 747.252 227.356 746.568C226.824 745.942 226.214 746.48 225.45 745.566C222.964 742.579 220.656 740.008 219.29 738.272C218.429 737.178 218.05 735.509 217.4 734.652C214.874 731.376 209.203 724.517 206.293 720.081C205.686 719.158 206.603 719.092 205.311 717.057C205.161 716.819 203.894 716.436 202.583 714.763C201.267 713.079 200.722 711.469 199.915 710.367C199.242 709.445 198.868 710.247 197.582 708.291C196.368 706.747 185.754 687.362 185.443 686.19C184.78 684.593 185.323 683.388 184.723 682.519C184.614 682.368 183.577 682.557 183.216 682.019C177.096 673.222 168.742 651.261 164.711 639.879C155.966 616.217 149.45 593.723 145.187 568.559C144.943 568.137 144.7 567.714 144.458 567.291C144.844 569.843 145.258 572.392 145.698 574.938C145.234 575.036 144.771 575.134 144.308 575.232C144.847 578.699 145.876 578.036 146.52 577.818C146.471 579.14 146.43 580.465 146.395 581.79C148.207 582.572 148.861 591.21 149.907 595.543C150.564 598.364 152.006 601.542 152.338 603.025C153.043 606.16 152.049 606.34 152.096 606.589C152.181 607.014 154.217 611.12 155.092 614.239C156.394 618.847 155.031 619.813 158.3 625.666C160.124 633.936 163.681 642.573 167.226 650.939C165.231 649.886 169.571 656.894 171.044 660.247C179.773 680.842 192.692 705.257 205.317 724.195C206.926 726.634 207.524 728.929 208.506 730.24C209.039 730.952 210.077 730.675 210.696 731.746C210.805 731.935 210.133 732.614 211.378 734.53C214.425 739.349 224.54 749.459 225.507 753.289C232.522 761.352 239.811 769.05 247.487 776.513C253.865 782.71 260.321 788.563 267.103 794.299C267.221 794.91 267.34 795.52 267.46 796.131C271.492 797.111 282.045 807.267 287.855 811.42C297.962 818.887 311.647 827.256 321.108 832.778C323.151 833.983 324.571 835.46 326.539 836.579C327.388 837.06 328.796 837.033 329.678 837.525C339.546 843.08 352.982 850.607 363.539 855.133C387.407 865.445 410.828 873.048 436.612 878.449C523.621 896.67 615.799 882.065 693.088 840.38C694.124 839.823 694.469 840.578 695.273 840.143C700.056 837.615 710.093 830.913 715.222 827.643C719.352 825.082 726.444 821.826 727.089 819.814C711.835 827.999 696.336 837.347 680.093 844.794C678.94 845.324 678.451 844.684 678.305 844.74C675.597 845.755 677.712 845.946 673.96 847.79C672.723 848.46 659.915 851.421 662.31 853.068C659.129 853.531 638.695 860.944 634.778 862.448C633.603 862.956 634.697 863.366 634.469 863.483C633.478 863.993 632.68 863.182 631.74 863.467C629.244 864.248 623.138 867.027 621.917 867.374C619.129 868.231 610.489 869.796 606.819 870.91C603.451 871.948 604.351 872.823 601.399 873.638C599.071 874.263 601.417 872.807 596.127 873.738C593.512 874.222 584.539 876.708 582.298 877.092C580.071 877.504 577.484 877.315 574.421 877.866C570.015 878.689 560.385 880.376 555.859 881.058C555.589 881.1 555.019 881.999 554.346 882.054C552.954 882.168 553.264 881.103 552.208 881.107C551.163 881.216 533.009 882.733 529.91 882.73C527.78 882.814 526.328 883.472 525.147 883.502C524.221 883.524 524.099 882.672 523.156 882.686C522.866 882.693 520.396 883.495 517.907 883.502C515.553 883.54 506.647 882.755 505.621 882.699C504.949 882.68 505.672 883.308 503.684 883.241C501.872 883.176 500.711 882.345 499.682 882.294C497.294 882.178 494.589 882.722 492.05 882.576C484.754 882.13 485.21 881.129 484.776 881.076C483.575 880.893 483.017 881.743 482.617 881.728C480.932 881.668 476.804 881.445 475.307 881.319C473.441 881.167 472.747 880.236 470.777 880.006C469.31 879.837 466.241 880.304 462.881 879.882C455.318 878.951 446.34 877.574 439.01 876.035C436.823 875.578 436.65 874.743 435.988 874.582C432.511 873.731 430.365 874.12 429.367 873.879C422.239 872.203 410.034 867.472 403.654 865.32C401.041 864.506 389.381 861.325 383.077 858.782C382.352 858.498 383.248 858.185 382.405 857.969C380.391 857.45 380.126 858.672 379.156 858.259C378.69 858.055 377.863 856.985 376.515 856.376C369.531 853.214 364.518 851.588 361.333 850.123C330.804 836.101 301.888 817.388 277.86 797.373C275.191 795.159 271.402 792.936 267.917 788.901C268.05 788.505 268.184 788.11 268.318 787.714C267.929 787.875 267.54 788.035 267.151 788.195C262.552 784.357 260.596 783.216 256.511 778.656C256.158 778.262 256.232 775.892 253.999 776.762C251.79 773.079 251.702 773.547 250.783 773.217C250.365 773.065 249.777 772.744 248.752 771.772C245.483 768.67 242.83 765.177 239.981 761.921C238.945 759.666 247.028 765.696 247.493 766.139C248.21 766.895 248.187 768.43 248.852 769.192C249.853 770.341 251.035 771.278 251.928 772.072C252.791 772.838 253.382 773.47 253.282 774.041C256.755 776.021 252.966 773.013 253.961 772.695C255.522 774.777 257.102 776.841 258.702 778.888C261.748 777.552 269.462 790.066 270.364 787.606C270.896 788.711 271.433 789.813 271.976 790.914C277.693 791.871 278.468 795.296 283.108 800.16C282.973 799.562 282.84 798.964 282.708 798.367C282.91 798.338 287.858 801.465 285.214 801.459C291.238 803.432 288.877 806.121 294.704 807.241C297.453 808.845 295.016 808.954 299.673 812.258C302.439 814.209 306.329 815.939 309.482 817.969C310.207 818.439 310.038 819.37 310.688 819.798C311.337 820.224 312.121 819.717 312.917 820.21C314.564 821.226 316.358 823.076 317.414 823.669C318.359 824.203 320.066 824.387 322.347 825.636C330.327 829.943 327.472 829.44 328.521 830.489C329.672 831.6 331.338 830.932 333.94 832.578C334.201 832.744 333.073 833.124 333.968 833.584C334.69 833.953 335.51 833.32 337.943 834.441C338.859 834.96 353.709 842.332 356.022 843.296C359.493 844.941 367.051 849.21 370.751 850.729C372.174 851.327 373.987 851.242 375.499 851.86C380.527 853.931 388.613 857.052 395.127 859.284C400.958 861.348 410.91 866.108 414.62 865.512C423.057 867.627 424.81 869.323 425.442 869.514C427.16 869.984 428.164 869.333 430.353 869.801C458.631 876.159 496.743 880.341 524.209 879.208C587.884 877.361 651.112 858.404 705.781 825.412C705.727 824.995 705.672 824.577 705.616 824.16C699.099 827.865 691.037 831.664 684.436 834.943C675.625 839.419 662.908 847.033 655.182 847.346C657.793 846.014 662.575 845.014 661.948 843.807C657.117 845.841 652.279 847.756 647.361 849.581C647.734 850.105 648.108 850.63 648.483 851.154C643.435 853.337 638.133 855.141 632.947 857.009C632.045 857.332 632.87 857.65 632.08 857.921C631.196 858.222 631.611 857.472 631.444 857.524C629.208 858.27 628.712 859.041 628.436 859.123C627.726 859.33 628.1 858.627 626.029 859.129C622.191 860.052 619.914 862.263 620.088 859.643C618.875 860.01 617.661 860.37 616.441 860.726C616.313 861.461 616.182 862.196 616.05 862.931C607.8 862.476 605.488 867.923 600.378 865.301C599.129 866.195 597.872 867.082 596.607 867.963C595.671 867.49 594.74 867.014 593.812 866.535C593.784 867.13 593.756 867.725 593.727 868.32C586.134 869.574 578.209 871.76 570.918 872.825C565.844 873.556 564.592 873.496 560.095 874.119C550.083 875.406 559.889 873.134 551.456 872.816C551.96 873.473 552.466 874.129 552.974 874.784C551.62 875.188 550.263 875.584 548.902 875.972C547.882 875.491 546.867 875.006 545.856 874.517C541.832 877.859 538.853 875.633 538.281 875.673C537.817 875.703 536.296 877.629 531.144 876.354C533.366 878.712 527.267 876.541 526.796 876.531C526.343 876.546 520.536 877.255 518.168 877.244C516.305 877.252 512.34 876.734 509.574 876.721C507.132 876.712 507.364 877.543 507.186 877.55C504.171 877.557 506.073 876.951 503.899 876.865C501.727 876.774 500.013 877.417 499.545 877.335C499.31 877.292 500.13 876.548 499.053 876.43C496.163 876.116 490.888 876.508 487.569 876.241C486.392 876.151 484.962 875.381 483.659 875.252C481.66 875.057 480.645 875.841 479.482 875.707C479.074 875.657 476.627 874.073 473.41 873.925C472.805 873.899 470.661 876.538 468.784 872.223C468.531 872.766 468.278 873.309 468.023 873.851C457.069 873.85 454.889 868.699 449.454 871.939C441.794 870.073 447.407 869.471 446.599 869.076C446.082 868.824 443.493 868.775 443.224 868.694C442.747 868.55 442.93 868.063 442.397 867.96C432.627 866.047 436.754 867.868 433.528 867.801C425.833 867.539 420.896 863.001 433.405 866.943C433.468 866.664 433.531 866.384 433.594 866.104C430.388 865.693 422.502 863.591 425.498 862.837C427.824 862.361 446.443 867.14 436.149 863.276C433.827 862.389 432.321 863.164 428.647 860.204C425.947 859.429 424.909 861.87 421.468 859.888C421.844 860.93 422.224 861.971 422.61 863.012C417.214 862.858 411.38 859.533 407.393 858.843C406.043 858.624 399.987 861.26 402.414 857.471C400.115 857.066 390.093 852.769 388.09 852.403C387.608 852.313 386.19 854.317 379.889 851C379.539 850.55 379.189 850.1 378.841 849.65C385.135 851.232 374.894 846.249 378.583 845.351C379.173 846.664 383.681 849.076 384.274 849.822C385.28 851.116 380.982 850.671 386.069 852.268C390.474 850.006 380.958 848.216 383.585 845.475C376.561 844.47 376.523 842.719 375.111 842.072C369.086 839.256 365.082 837.864 359.589 834.817C357.87 834.827 367.801 840.563 369.248 840.805C363.441 841.018 371.65 844.783 375.739 844.807C375.741 845.637 375.744 846.467 375.75 847.298C371.317 845.033 366.974 842.918 362.231 841.44C362.059 841.045 361.887 840.651 361.716 840.257C362.899 840.327 364.08 840.39 365.259 840.447C361.852 838.121 363.107 841.172 359.043 837.104C358.522 837.812 358.001 838.52 357.478 839.227C352.889 836.728 348.339 834.122 343.863 831.427C340.641 831.726 332.148 826.221 334.876 825.173C331.444 823.025 335.188 826.551 331.62 825.125C330.063 824.501 327.246 822.907 326.878 821.979C328.267 820.331 332.538 822.551 334.532 821.998C333.912 821.294 314.244 810.825 317.329 809.702C316.016 808.474 315.987 810.007 313.151 808.499C305.131 804.269 295.563 793.963 287.957 791.867C293.544 798.591 296.717 798.597 302.014 802.39C305.296 805.024 326.73 818.617 320.796 817.409C321.743 817.667 322.69 817.92 323.636 818.168C324.087 819.237 324.543 820.305 325.006 821.373C322.668 820.064 320.341 818.728 318.024 817.362C317.844 816.452 317.668 815.542 317.495 814.633C316.988 814.875 316.48 815.116 315.972 815.355C314.973 814.82 313.968 814.273 312.981 813.732C313.562 813.428 314.141 813.121 314.722 812.816C313.334 811.783 311.956 810.741 310.583 809.688C310.535 810.585 310.49 811.483 310.448 812.381C303.577 807.924 306.136 809.076 303.264 805.289C300.598 803.184 304.383 807.76 298.341 803.823C291.409 799.179 297.156 800.655 288.356 794.407C287.995 794.61 287.635 794.813 287.274 795.015C285.648 793.229 284.043 791.428 282.475 789.629C282.411 790.195 282.348 790.761 282.286 791.328C278.629 788.092 272.916 784.31 272.946 781.821C276.085 785.797 278.195 783.271 277.619 781.983C276.957 780.542 268.066 772.804 259.532 764.468C252.106 757.29 245.117 749.875 242.758 747.221C236.308 739.99 232.546 733.676 225.92 727.618C228.367 733.32 242.742 748.844 244.886 752.346C245.086 752.699 242.793 754.636 246.998 754.246C250.03 758.057 253.93 761.874 258.167 765.833C261.072 768.547 264.114 771.308 267.128 774.182C266.311 774.598 265.493 775.011 264.673 775.423C261.806 770.585 256.294 768.919 256.589 767.411C256.641 767.157 256.859 766.909 257.287 766.651C256.391 765.755 255.501 764.855 254.616 763.952C254.204 764.356 253.793 764.759 253.381 765.163C252.041 763.795 250.714 762.419 249.4 761.035C249.818 760.638 250.236 760.241 250.654 759.844C249.571 758.703 248.497 757.558 247.431 756.406C246.898 756.677 246.365 756.947 245.831 757.217C243.465 753.042 230.54 742.82 237.764 745.984C236.324 744.302 234.902 742.61 233.498 740.908C233.177 741.182 232.856 741.456 232.536 741.73C231.885 741.03 231.244 740.337 230.592 739.624C231.087 739.628 231.584 739.634 232.077 739.634C228.765 736.662 227.796 732.159 225.014 730.695C225.934 732.371 226.87 734.043 227.821 735.711C225.98 732.529 221.055 727.883 220.702 727.394C219.612 725.935 219.725 724.649 218.597 723.018C217.58 721.545 217.194 722.124 217.018 721.84C211.99 713.558 217.072 714.584 211.063 713.227C211.272 712.511 211.483 711.795 211.696 711.081C210.946 710.819 210.199 710.558 209.447 710.287C207.913 707.877 206.41 705.453 204.938 703.017C204.834 704.201 204.737 705.389 204.646 706.581C202.069 703.122 202.266 700.657 202.077 700.291C201.538 699.249 200.491 699.257 200.302 698.947C191.526 683.85 197.545 692.57 196.274 683.385C193.636 681.318 193.949 684.688 192.98 685.729C191.559 681.796 190.633 680.855 188.69 676.929C188.188 675.908 188.287 674.489 187.976 673.846C187.705 673.29 186.145 671.901 185.489 670.564C184.391 668.334 183.393 665.171 181.968 662.083C180.762 659.525 176.775 651.834 174.549 646.223C173.593 643.827 174.421 644.145 174.178 643.526C174.077 643.269 172.622 641.681 172.033 640.135C167.229 627.551 163.511 614.208 160.143 601.116C157.767 591.893 155.118 582.546 153.538 573.099C153.206 571.091 153.951 572.057 153.822 571.178C153.779 570.877 152.725 570.68 152.624 567.508C152.59 566.363 153.48 567.545 153.341 566.438C153.277 565.899 152.369 565.807 151.712 562.689C150.528 557.007 151.344 553.774 151.244 553.271C151.064 552.314 150.379 552.68 150.207 551.401C149.376 545.15 148.799 539.905 148.363 534.288C148.04 531.674 147.295 513.538 147.526 512.538C147.804 510.309 149.316 512.373 149.262 509.528C148.882 508.73 148.504 507.931 148.128 507.128C147.828 508.396 147.535 509.667 147.248 510.94C147.721 507.438 147.092 503.462 147.185 500.864C147.198 500.382 148.013 495.996 148.046 493.749C148.286 494.717 148.531 495.682 148.78 496.645C149.033 496.316 149.288 495.989 149.542 495.662C149.35 491.173 149.632 486.44 150.036 481.864C150.183 480.213 150.723 480.818 150.882 479.151C151.896 469.475 149.221 471.585 154.908 462.871C154.037 465.94 153.425 477.427 153.176 479.079C152.964 480.217 148.766 484.449 152.852 483.086C152.215 492.37 150.518 484.157 150.527 492.898C151.019 492.747 151.512 492.596 152.005 492.446C152.165 495.494 152.335 497.735 151.426 499.556C153.735 500.242 152.166 510.484 152.464 516.14C152.817 524.298 153.87 533.458 154.68 541.478C154.956 544.241 154.201 545.897 154.237 546.245C154.294 546.753 155.244 548.095 155.36 549.104C155.738 552.864 155.953 564.547 158.667 567.018C155.114 544.767 153.65 522.183 154.295 499.659C152.979 502.47 154.025 479.622 154.362 478.481C154.505 477.416 155.197 478.384 155.271 478.07C155.81 475.741 154.898 473.62 154.976 472.868C155.035 472.296 155.676 471.198 155.893 469.168C155.934 468.796 155.393 468.629 155.437 468.229C155.745 465.579 156.084 462.967 156.448 460.314C156.475 460.153 157.373 459.596 157.47 458.929C157.565 458.26 156.858 457.482 156.88 457.312C157.193 455.195 158.287 451.658 158.635 449.657C158.753 448.961 158.084 449.344 158.223 448.565C158.654 446.17 159.659 447.162 159.903 444.157C159.988 443.15 159.097 443.048 159.577 441.173C159.919 439.847 161.451 440.3 161.549 440.099C161.668 439.824 161.378 434.963 162.729 433.679C164.705 437.529 163.647 430.134 162.459 430.199C163.155 428.442 163.864 426.693 164.587 424.95C164.452 424.263 164.318 423.577 164.186 422.889C167.295 415.926 167.757 411.299 170.293 404.345C170.404 404.004 172.907 398.275 173.22 398.685C172.742 402.438 171.699 405.965 169.768 407.875C171.075 412.338 169.116 411.833 167.797 418.026C167.367 420.098 167.992 420.413 167.939 420.65C166.162 428.671 163.776 441.528 160.897 446.655C161.148 448.277 162.357 442.823 162.355 445.029C162.081 446.2 158.838 474.419 157.799 465.141C157.744 466.088 157.693 467.035 157.646 467.982C159.671 469.173 158.683 473.761 156.604 473.018C156.996 473.507 157.389 473.995 157.783 474.481C158.067 475.391 158.165 476.443 158.153 477.904C157.682 483.46 156.11 516.583 156.824 518.354C157.335 518.382 157.845 518.41 158.356 518.437C158.605 503.879 157.811 489.621 160.852 473.939C160.33 474.349 159.808 474.761 159.287 475.175C160.571 468.916 162.021 462.7 163.631 456.552C163.451 463.301 162.934 473.891 161.681 480.816C161.453 482.047 160.862 481.083 160.758 481.363C160.491 482.094 161.574 482.987 161.5 485.671C161.409 488.353 160.258 495.053 160.27 495.678C160.266 496.876 161.481 500.135 161.423 502.155C161.346 504.816 160.563 503.017 160.535 503.551C160.414 505.765 160.805 507.755 160.742 509.488C160.637 512.053 159.274 517.448 161.446 519.193C161.495 517.355 161.558 515.518 161.636 513.683C162.517 523.583 160.206 531.538 163.129 541.158C165.872 543.135 164.834 535.161 166.512 541.83C166.364 540.606 166.222 539.382 166.087 538.158C165.529 537.913 164.971 537.667 164.414 537.419C164.63 535.265 164.866 533.116 165.122 530.973C164.681 531.606 164.241 532.242 163.804 532.88C162.939 525.367 162.276 517.696 164.818 515.036C164.194 514.89 163.57 514.743 162.946 514.595C163.565 507.59 161.263 496.975 164.667 499.05C164.494 498.714 164.322 498.377 164.15 498.039C165.012 493.837 163.519 495.587 163.425 493.986C163.378 493.522 164.598 485.346 165.407 489.048C166.707 481.119 163.35 483.339 163.372 481.112C165.354 476.108 164.033 466.66 166.109 470.808C166.288 470.058 166.47 469.309 166.655 468.561C164.975 465.825 167.529 463.631 168.652 461.055C168.825 460.149 169.001 459.246 169.181 458.344C168.609 457.637 168.039 456.926 167.472 456.212C171.989 448.171 162.987 449.373 170.889 446.756C171.209 447.441 171.531 448.124 171.855 448.805C171.805 450.275 171.764 451.743 171.733 453.211C172.878 447.461 174.168 441.743 175.599 436.072C179.202 429.286 178.029 424.666 181.779 417.151C181.797 416.358 181.819 415.564 181.843 414.769C183.225 415.983 182.171 418.766 184.414 413.649C185.669 413.528 184.782 417.142 183.469 418.543C183.147 418.883 183.213 415.269 182.136 419.053C181.425 421.629 184.008 417.307 181.487 424.902C181.838 424.686 182.189 424.471 182.54 424.257C182.317 425.091 182.096 425.926 181.879 426.762C181.049 427.347 180.222 427.935 179.395 428.531C179.863 430.692 180.897 432.071 179.644 436.414C179.503 435.128 177.837 436.464 177.395 438.669C177.864 438.768 178.334 438.867 178.804 438.966C178.013 444.324 177.002 442.221 177.236 446.854C176.779 447.227 176.321 447.602 175.865 447.978C176.934 450.686 176.582 459.723 174.515 457.749C176.386 460.597 174.647 465.683 172.593 467.438C173.047 467.648 173.502 467.858 173.956 468.067C173.924 469.123 173.897 470.18 173.874 471.236C173.522 471.786 173.171 472.338 172.821 472.892C173.027 473.666 173.236 474.438 173.448 475.209C172.926 475.608 172.406 476.009 171.886 476.413C172.34 477.665 172.8 478.914 173.267 480.157C172.824 480.854 172.382 481.553 171.943 482.255C172.914 482.416 172.619 489.663 171.88 491.656C172.137 492.276 172.396 492.894 172.657 493.511C172.168 493.783 171.68 494.056 171.192 494.33C171.551 494.798 171.911 495.265 172.272 495.73C171.85 496.749 171.432 497.773 171.018 498.799C173.218 503.098 171.193 503.174 171.186 504.147C171.167 505.947 172.612 512.043 172.56 513.054C172.494 514.069 171.665 514.571 171.599 515.394C170.62 528.989 172.775 523.337 173.216 526.028C173.477 527.478 172.754 528.551 172.914 529.839C173.135 532.052 175.074 543.075 175.078 543.711C175.027 544.656 171.144 542.822 172.397 545.767C174.357 545.664 173.114 552.349 175.503 549.015C175.567 551.695 175.663 554.378 175.79 557.063C178.068 556.443 177.018 559.906 177.709 563.429C178.626 568.442 182.332 579.327 179.928 579.397C180.715 580.479 181.507 581.553 182.304 582.62C183.337 590.907 186.131 598.61 188.491 606.499C195.439 629.917 205.295 654.651 216.849 676.135C217.402 677.169 216.637 677.407 217.038 678.152C219.131 682.111 225.547 691.668 228.877 696.955C229.928 698.651 229.83 699.874 230.154 700.42C231.251 702.268 231.803 701.281 232.335 702.112C233.147 703.426 237.157 710.726 238.799 713.061C239.596 714.22 241.233 715.069 242.033 716.527C242.103 716.652 241.287 716.944 241.349 717.048C243.097 719.5 242.563 717.628 243.153 718.457C247.385 724.382 252.283 730.366 257.391 736.4C258.658 737.902 260.24 740.522 261.334 741.79C261.754 742.273 261.435 741.007 262.898 742.665C263.4 743.232 262.981 743.977 263.529 744.64C265.91 747.492 268.647 746.557 269.37 750.304C270.034 750.951 270.782 751.66 271.59 752.41C276.153 756.675 282.598 762.042 286.157 765.184C287.147 766.066 287.312 766.854 288.267 767.682C288.945 768.271 290.622 768.743 291.684 769.642C292.746 770.541 293.961 772.509 296.04 774.194C298.212 775.963 301.247 777.848 301.74 778.239C302.343 778.717 302.07 779.643 302.683 780.111C304.534 781.543 310.006 784.6 312.479 786.272C315.142 788.092 316.469 789.556 317.374 790.183C318.214 790.76 319.62 790.816 320.005 791.074C320.604 791.474 320.243 792.299 321.005 792.812C322.251 793.646 323.839 794.052 325.713 795.275C359.623 817.382 396.37 833.593 434.643 843.327C438.917 844.401 441.471 844.357 447.763 845.897C450.32 846.511 449.064 847.198 451.111 847.406C452.025 847.496 451.927 846.749 453.068 846.92C458.107 847.685 463.874 849.224 466.072 849.513C466.943 849.631 468.045 848.963 469.826 849.182C483.088 850.837 498.891 852.166 513.291 852.023C520.915 851.996 532.428 851.185 541.123 850.407C565.167 848.428 590.799 843.62 611.835 837.189C643.659 827.576 673.46 812.864 701.604 795.384C687.621 802.345 669.414 812.709 653.63 819.491C608.349 839.441 555.702 851.383 504.721 849.798C487.026 849.384 464.729 847.028 445.86 842.631C445.005 842.436 443.095 842.681 441.251 842.211C440.854 842.117 436.23 839.902 434.604 839.489C435.68 841.843 429.692 838.526 427.724 838.041C425.233 837.457 419.757 837.033 414.17 834.716C409.11 832.602 410.796 832.29 410.521 832.158C408.787 831.268 407.759 832.254 406.313 831.908C400.282 830.822 371.668 818.505 364.112 814.277C362.109 813.274 362.414 812.525 361.965 812.297C360.777 811.694 358.722 811.535 356.822 810.534C353.408 808.741 349.89 805.938 348.047 804.891C343.612 802.413 334.919 798.247 329.362 794.618C327.798 793.605 328.351 792.968 327.65 792.509C324.567 790.53 316.086 785.824 312.395 783.056C306.41 778.645 300.673 773.41 294.749 768.735C294.623 768.14 294.499 767.546 294.377 766.952C293.549 766.756 292.72 766.556 291.89 766.352C285.917 760.918 279.881 755.645 273.972 750.028C270.431 746.662 267 743.233 263.778 739.698C262.783 738.639 258.44 732.7 257.668 731.774C257.007 731.011 255.659 730.858 254.791 729.627C253.581 727.904 256.185 728.283 253.615 725.99C252.926 725.371 252.914 726.537 251.56 725.263C251.083 724.886 243.451 715.723 243.155 715.162C242.581 714.262 243.3 712.54 243.165 712.302C242.463 711.06 241.509 711.844 240.852 711.144C238.898 709.075 237.426 705.574 237.152 705.213C233.746 700.855 227.196 692.734 224.673 687.442C224.321 686.715 225.156 686.317 225.108 686.182C224.798 685.309 223.611 685.369 223.144 684.639C220.629 680.72 217.615 673.991 215.586 669.792C215.349 669.309 214.37 668.542 213.966 667.669C211.693 662.697 213.244 663.898 213.128 663.608C212.872 662.917 211.491 662.171 210.573 660.445C208.181 656.025 204.255 647.199 202.248 642.199C200.732 638.458 201.719 638.124 201.634 637.873C201.456 637.341 200.103 636.191 199.044 633.748C197.021 629.043 197.999 629.298 197.231 627.347C197.172 627.181 196.537 627.743 195.664 625.579C193.948 621.412 191.49 611.536 190.118 606.939C189.577 605.169 188.729 604.96 188.191 603.134C187.318 600.238 186.391 593.455 186.273 592.938C186.237 592.793 185.31 592.678 185.097 591.82C184.863 590.876 185.073 589.84 184.901 589.135C183.908 585.134 180.961 578.478 184.409 579.774C183.388 578.644 182.372 577.504 181.362 576.355C179.828 567.826 178.203 559.573 177.012 551.054C176.746 549.139 177.151 547.471 176.951 545.856C176.731 544.25 175.118 537.168 175.028 535.962C174.774 533.826 174.045 521.633 174.126 520.109C174.169 517.135 175.416 514.246 175.155 513.047C174.946 512.083 174.227 512.983 174.013 511.137C173.636 507.936 174.658 502.515 174.676 501.544C174.684 501.128 174.085 501.895 174.172 497.988C174.224 495.882 174.898 494.781 174.93 494.019C174.942 493.782 173.9 494.091 174.27 489.933C174.536 487.063 175.406 485.895 175.429 485.595C175.467 485.144 174.717 483.993 174.893 482.178C175.291 477.93 177.055 470.306 177.663 466.325C177.779 465.554 176.741 465.687 177.259 462.61C177.637 460.41 178.374 460.913 178.525 460.094C178.768 458.798 178.095 456.703 178.605 453.824C178.965 450.124 185.842 423.72 186.707 422.518C187.12 421.649 187.418 420.593 187.96 420.256C188.254 420.753 188.549 421.249 188.846 421.743C186.368 425.371 188.413 424.184 188.237 425.271C187.973 426.842 186.344 432.615 186.392 434.116C186.408 434.648 187.528 433.699 187.364 436.494C187.195 439.487 185.388 440.456 187.257 442.048C184.062 445.686 185.823 450.14 187.402 445.503C188.042 442.853 195.145 417.352 197.134 412.334C198.495 408.195 200.485 400.197 202.514 395.221C203.67 392.28 206.646 385.073 207.598 385.817C208.783 383.285 206.613 385.591 206.687 384.989C206.815 383.713 210.966 375.972 211.643 374.463C214.813 366.962 218.3 357.094 223.397 350.853C223.489 351.324 223.582 351.794 223.675 352.263C223.303 354.065 218.784 361.015 219.706 362.517C225.092 351.775 231.056 341.357 237.593 331.271C236.363 330.725 244.761 318.388 245.71 318.181C246.049 318.748 246.391 319.314 246.733 319.879C240 325.437 242.982 326.544 238.522 330.348C237.244 332.267 238.467 332.229 238.014 333.283C233.634 343.794 236.132 332.321 232.381 340.133C234.96 338.676 231.779 344.952 230.391 347.793C230.039 348.42 225.178 356.476 224.711 357.488C221.845 363.113 217.907 373.112 214.704 378.526C212.648 382.997 212.578 385.875 211.155 390.101C210.091 393.31 209.77 392.147 209.191 393.63C207.985 396.751 209.703 398.526 206.071 399.49C205.671 401.75 205.291 404.022 204.939 406.29C204.484 406.137 204.028 405.985 203.573 405.833C203.12 407.186 202.676 408.542 202.242 409.901C202.569 410.446 202.898 410.99 203.228 411.532C201.26 415.638 200.72 413.509 199.17 413.92C198.794 414.833 198.424 415.745 198.056 416.664C198.842 417.691 199.632 418.711 200.426 419.724C199.144 423.888 197.945 428.075 196.831 432.283C196.3 432.443 195.768 432.605 195.237 432.769C195.7 432.89 196.163 433.011 196.626 433.132C194.99 440.335 193.603 447.572 192.46 454.863C192.854 456.911 195.531 445.423 195.807 444.58C196.966 439.771 199.381 426.799 201.082 427.236C200.597 423.94 203.488 415.083 205.834 412.83C204.443 416.949 203.132 421.108 201.907 425.29C202.496 425.303 203.084 425.317 203.672 425.332C200.05 429.952 199.963 430.805 200.802 436.714C200.054 436.545 199.306 436.376 198.558 436.208C200.256 440.573 194.458 446.377 197.657 447.226C196.995 449.2 196.351 451.189 195.726 453.183C195.419 457.668 198.803 451.221 195.365 468.303C195.143 469.485 194.34 469.131 194.177 470.935C194.137 471.458 194.958 474.557 194.301 480.209C194.2 481.093 193.469 481.095 193.297 482.009C192.885 484.122 194.02 488.469 191.82 486.373C190.572 494.804 192.745 491.407 193.359 494.061C193.782 495.826 192.413 495.413 192.664 496.939C192.995 498.826 194.381 497.499 193.585 504.946C193.503 504.107 193.425 503.267 193.349 502.426C192.96 502.839 192.571 503.253 192.183 503.669C193.022 507.959 191.71 507.548 193.836 509.566C192.883 512.661 192.829 515.36 193.123 519.597C193.774 527.839 195.841 523.456 193.342 533.041C193.884 534.533 194.437 536.018 195 537.496C194.31 540.069 192.98 538.152 193.108 541.913C195.064 538.776 195.035 546.72 197.217 547.794C196.757 547.989 196.297 548.184 195.837 548.38C195.936 549.208 196.039 550.036 196.144 550.863C196.526 550.817 196.909 550.77 197.291 550.724C197.145 551.858 197.006 552.995 196.872 554.134C197.364 554.909 197.86 555.681 198.358 556.447C197.759 557.915 197.17 559.393 196.592 560.879C196.674 561.741 196.759 562.603 196.848 563.466C197.368 563.101 197.888 562.737 198.41 562.375C198.401 563.498 198.398 564.621 198.4 565.745C199.109 564.314 200.319 564.928 200.909 568.302C201.415 571.085 198.863 568.328 200.855 574.153C201.006 574.556 202.487 575.024 203.949 580.572C205.756 587.217 204.024 584.195 204.269 585.399C204.321 585.638 205.501 587.511 206.089 589.389C206.422 590.455 206.146 591.639 206.186 591.782C206.388 592.443 207.217 592.429 207.493 593.342C208.19 595.659 208.702 598.898 209.421 601.161C209.746 602.189 210.498 603.019 210.644 603.476C210.868 604.185 210.453 605.305 210.684 606.025C211.534 608.695 215.164 611.913 212.418 614.229C216.192 615.754 214.613 622.268 216.422 621.172C218.046 628.268 228.093 644.643 224.801 645.566C229.221 647.964 227.129 648.546 227.914 650.062C228.797 651.747 228.879 650.608 229.527 651.971C231.047 655.15 232.389 658.266 234.043 661.348C233.362 661.091 232.681 660.832 232.001 660.569C233.619 663.895 233.983 662.25 235.996 665.434C239.747 671.265 237.555 669.162 236.98 670.681C237.872 669.86 241.885 676.958 242.214 677.739C242.399 678.211 239.908 677.182 243.01 681.178C243.267 680.689 243.525 680.202 243.783 679.715C244.431 682.006 248.541 686.759 248.996 687.698C249.194 688.13 247.467 692.465 251.338 692.676C251.109 693.184 250.882 693.693 250.655 694.204C252.644 696.037 254.662 697.856 256.686 699.627C256.242 700.476 255.801 701.327 255.362 702.18C255.863 702.853 256.368 703.524 256.875 704.194C257.148 703.287 257.425 702.383 257.705 701.482C260.507 705.824 265.403 709.996 264.084 712.452C265.161 713.018 266.226 713.562 267.3 714.107C267.098 715.208 266.902 716.312 266.711 717.419C270.211 721.218 270.719 720.901 273.736 722.94C273.144 723.282 272.551 723.623 271.957 723.964C274.407 725.319 278.215 728.206 280.884 730.839C282.143 732.093 283.62 734.938 283.979 735.181C284.207 735.336 286.481 735.57 287.661 736.339C288.356 736.793 288.674 737.438 287.976 738.384C293.345 741.726 294.341 744.56 296.195 746.235C297.401 747.315 298.445 747.249 299.855 748.416C301.881 750.09 303.626 752.096 304.804 753.043C305.479 753.583 306.08 753.129 306.545 753.497C308.754 755.226 307.014 754.742 309.313 756.602C309.533 756.774 311.743 757.448 313.579 759.076C314.597 759.987 316.746 762.967 316.997 763.155C318.105 763.989 318.443 761.728 320.783 766.434C320.904 766.046 321.027 765.658 321.149 765.27C326.366 767.982 326.136 769.874 327.024 770.67C327.141 770.767 328.683 771.059 329.325 771.624C330.407 772.58 330.367 773.652 330.605 773.868C331.448 774.629 334.783 776.436 336.359 778.523C337.347 776.117 345.051 780.025 345.162 783.481C346.769 783.799 348.373 784.102 349.974 784.391C350.318 785.156 350.664 785.921 351.017 786.686C351.624 786.489 352.23 786.29 352.835 786.09C354.228 788.124 355.649 790.148 357.098 792.161C357.736 791.309 358.373 790.456 359.009 789.602C359.495 790.009 359.982 790.415 360.471 790.819C360.495 791.788 360.522 792.757 360.554 793.728C361.319 793.96 362.085 794.189 362.851 794.416C363.307 793.971 363.761 793.526 364.215 793.079C368.235 794.385 363.705 798.618 373.151 797.632C374.056 798.608 374.968 799.58 375.888 800.546C378.152 799.047 379.927 801.432 381.982 802.07C383.424 802.517 383.725 801.641 385.593 802.441C387.463 803.237 387.049 804.016 387.192 804.085C388.697 804.792 390.152 804.558 391.214 805.168C391.374 805.259 391.395 806.408 392.808 807.057C394.226 807.704 395.513 807.02 397.589 808.058C398.655 808.588 398.658 809.536 399.616 809.986C404.215 812.146 410.391 809.559 412.286 815.785C413.317 815.431 419.887 815.062 422.351 815.92C426.205 817.284 424.41 817.837 425.924 818.472C426.143 818.561 427.437 818.577 430.739 819.532C431.33 819.702 431.343 819.096 431.431 819.111C435.281 820.17 442.737 822.441 447.033 823.417C447.423 823.507 449.746 822.333 452.745 825.163C458.1 824.568 467.194 829.614 474.325 827.99C475.269 828.055 476.341 828.773 476.761 828.801C480.386 829.013 479.204 827.16 487.112 830.481C486.53 829.519 488.499 828.87 491.176 829.13C495.206 829.506 492.226 831.011 495.496 831.07C495.523 830.593 495.55 830.115 495.578 829.638C502.998 831.312 504.582 829.316 512.062 829.389C514.753 829.409 518.752 830.421 519.4 830.409C519.652 830.405 522.579 829.187 522.857 829.167C524.44 829.088 525.353 829.588 526.724 829.538C531.26 829.381 536.538 827.508 535.749 830.292C536.957 829.634 538.159 828.97 539.353 828.298C544.298 830.825 547.422 826.451 548.692 829.157C549.469 828.486 550.241 827.813 551.008 827.137C571.051 825.111 590.923 821.19 610.263 815.422C610.765 814.344 619.195 811.882 619.664 811.836C621.826 811.752 620.425 814.364 624.268 812.499C624.413 811.522 624.554 810.546 624.691 809.57C629.554 807.453 627.47 809.15 629.642 808.952C630.422 808.535 629.914 808.01 631 807.533C636.904 804.997 648.947 799.671 655.171 796.466C656.434 795.829 656.523 796.486 656.918 796.291C658 795.745 659.771 793.962 661.919 792.836C675.238 786.011 693.448 775.056 705.901 766.387C706.748 765.808 707.302 766.33 707.879 765.94C708.677 765.397 710.011 763.604 710.847 763.029C711.635 762.488 712.469 762.558 713.314 761.973C717.219 759.283 721.377 754.569 726.269 752.503C726.676 752.35 732.664 751.052 732.877 751.113C734.198 751.494 731.917 756.109 738.86 752.063C734.706 757.901 738.098 758.513 745.764 753.06C742.613 756.53 739.427 759.903 736.109 763.266C736.312 763.507 736.515 763.748 736.718 763.989C740.976 762.316 744.477 759.87 749.307 755.448C749.361 755.8 749.415 756.152 749.469 756.504C746.295 761.571 741.276 766.455 739.192 770.873C745.119 767.69 750.933 764.363 756.724 760.805C756.646 761.201 756.567 761.596 756.488 761.992C754.615 764.65 749.778 769.608 748.154 771.788C741.973 780.152 755.826 767.019 754.352 770.046C746.409 777.334 738.163 784.243 729.577 790.794C730.166 792.255 763.383 767.003 764.798 768.869C762.452 771.412 760.077 773.916 757.672 776.382C759.296 775.886 760.922 775.375 762.55 774.85C762.398 775.311 762.245 775.771 762.092 776.231C758.216 780.625 754.156 784.998 750.033 789.235C763.346 777.106 769.249 771.497 776.487 772.487C776.24 772.942 775.992 773.396 775.743 773.85C770.441 774.17 757.834 787.611 750.613 794.397C752.846 793.946 758.903 787.639 760.685 786.862C761.197 786.649 760.32 788.413 761.477 787.884C764.538 786.555 775.217 778.179 774.618 780.364C774.352 781.895 758.776 797.472 755.308 800.026C763.924 794.64 771.91 787.961 780.357 782.029C777.36 788.197 775.243 794.253 766.293 802.214C764.428 805.642 784.335 789.948 785.119 789.844C782.456 793.426 779.735 796.961 776.958 800.448C779.587 797.807 782.183 795.123 784.747 792.397C784.921 792.563 785.095 792.729 785.269 792.894C779.067 800.372 773.747 807.919 765.057 814.928C766.146 815.69 771.206 811.296 773.663 809.151ZM218.876 376.312C219.909 376.579 218.374 379.567 217.609 381.293C217.898 381.109 218.187 380.925 218.476 380.743C216.66 384.335 213.483 391.141 215.297 392.152C214.491 394.906 213.297 393.087 212.774 393.878C212.564 394.191 212.199 398.044 210.008 400.436C209.772 401.108 209.538 401.781 209.306 402.454C209.892 402.806 210.478 403.158 211.065 403.509C209.971 404.172 208.877 404.847 207.786 405.529C211.002 395.631 214.701 385.882 218.87 376.326C218.872 376.322 218.874 376.317 218.876 376.312ZM192.721 476.302C191.938 480.025 190.891 485.787 192.815 484.756C192.904 482.368 193.02 479.977 193.162 477.591C193.015 477.162 192.868 476.732 192.721 476.302ZM355.877 793.444C357.783 796.572 361.087 796.603 365.312 799.151C365.481 798.809 365.649 798.466 365.818 798.124C363.598 798.022 359.208 795.009 355.877 793.444ZM264.441 292.842C265.018 292.396 265.596 291.952 266.176 291.509C265.798 295.045 264.373 294.477 262.401 297.1C262.283 297.258 262.685 297.51 262.643 297.564C262.151 298.193 261.243 298.395 260.787 298.954C259.907 300.037 259.632 301.261 258.058 303.168C256.841 304.645 256.13 304.099 255.726 304.64C255.371 305.109 253.825 311.073 250.817 313.327C244.87 317.578 262.631 294.118 264.441 292.842ZM279.704 278.883C279.226 279.379 278.75 279.877 278.276 280.375C278.736 277.926 275.947 281.062 273.87 283.312C272.96 282.326 277.873 278.018 279.68 275.68C279.682 276.75 279.69 277.817 279.704 278.883ZM225.083 346.363C226.305 343.944 227.521 345.167 227.892 345.509C227.464 346.251 227.04 346.994 226.619 347.739C226.106 347.281 225.594 346.823 225.083 346.363ZM235.17 328.687C235.639 330.007 232.9 335.206 231.55 337.62C231.488 337.724 231.356 336.751 230.387 338.455C230.082 338.967 229.081 345.081 227.528 342.699C229.956 337.977 232.494 333.321 235.165 328.693C235.167 328.691 235.168 328.689 235.17 328.687ZM239.003 324.121C238.677 325.232 238.357 326.343 238.045 327.453C237.292 327.633 236.535 327.821 235.779 328.011C236.363 326.877 236.942 325.764 237.534 324.644C238.024 324.468 238.513 324.294 239.003 324.121ZM625.622 824.205C625.19 823.758 624.759 823.311 624.33 822.863C623.29 822.873 619.476 826.763 621.085 826.72C622.605 825.893 624.124 825.052 625.622 824.205ZM645.22 817.839C646.265 817.703 647.311 817.562 648.358 817.416C649.048 816.069 649.726 814.721 650.393 813.37C645.525 814.86 640.312 816.196 642.187 818.479C641.117 818.923 640.051 819.359 638.972 819.794C639.442 818.342 639.17 818.048 636.093 818.472C636.076 820.227 632.863 820.605 629.636 822.177C632.109 821.364 634.575 820.521 637.035 819.648C637.14 819.914 637.246 820.181 637.352 820.447C631.879 822.477 639.328 821.547 642.395 819.021C642.817 819.259 643.24 819.496 643.664 819.733C644.186 819.103 644.704 818.471 645.22 817.839ZM261.466 728.561C261.722 729.296 261.981 730.031 262.244 730.767C266.923 730.392 260.436 728.453 260.113 723.44C259.242 725.922 255.363 721.129 255.035 720.945C254.895 721.974 254.759 723.005 254.628 724.04C256.892 725.575 259.171 727.082 261.466 728.561ZM273.5 745.433C273.308 744.026 274.975 745.05 277.133 746.867C279.759 749.086 283.133 752.426 284.636 754.142C285.297 754.905 285.912 756.879 286.535 757.276C287.117 757.295 287.697 757.312 288.278 757.328C287.745 758.648 294.811 762.99 297.687 764.473C297.604 765.031 297.522 765.589 297.442 766.148C298.45 766.753 299.46 767.352 300.471 767.945C300.055 768.218 299.638 768.492 299.221 768.765C300.264 768.886 301.304 769.002 302.343 769.112C305.415 770.791 302.132 771.474 304.668 772.473C307.485 773.568 304.757 769.411 305.468 768.683C303.487 767.429 299.085 764.519 297.277 762.99C296.24 762.109 298.578 761.788 292.819 759.476C292.182 758.263 291.54 757.036 290.931 755.829C288.69 754.831 286.449 753.799 284.21 752.735C284.35 751.948 284.493 751.161 284.638 750.376C284.528 750.141 279.566 747.432 279.422 747.982C279.228 747.282 278.843 746.51 278.318 745.682C276.99 743.593 274.777 741.152 272.47 738.649C271.891 738.566 271.313 738.483 270.734 738.398C274.471 741.206 271.462 739.728 271.908 741.206C272.166 742.06 273.3 744.366 273.5 745.433ZM595.282 834.864C602.386 831.356 598.078 833.906 606.165 831.661C605.365 830.991 604.569 830.319 603.777 829.644C600.257 832.288 593.435 832.91 595.274 834.866C595.277 834.865 595.279 834.864 595.282 834.864ZM670.351 802.935C666.715 805.446 669.295 805.63 664.485 808.566C664.483 808.567 664.48 808.568 664.478 808.569C667.116 807.348 669.749 806.085 672.344 804.799C671.678 804.179 671.013 803.558 670.351 802.935ZM420.346 829.628C416.395 828.069 416.993 828.949 413.735 826.527C407.803 826.336 412.47 827.594 412.029 829.002C413.412 828.988 414.793 828.965 416.171 828.934C418.809 831.177 415.725 830.97 415.683 831.095C415.685 831.096 415.688 831.097 415.69 831.097C415.561 831.521 415.434 831.582 416.531 832.194C417.81 831.345 419.081 830.49 420.346 829.628ZM402.493 825.799C404.198 825.354 405.208 824.385 401.841 822.522C401.839 822.521 401.836 822.52 401.834 822.519C400.805 824.484 397.968 821.57 396.365 821.116C395.873 821.184 395.379 821.252 394.885 821.318C397.397 822.843 399.934 824.337 402.493 825.799ZM343.365 800.521C344.588 798.43 347.455 799.851 344.709 795.642C343.94 795.235 343.171 794.825 342.403 794.412C341.639 794.571 340.873 794.728 340.105 794.881C333.051 785.263 326.16 789.909 343.681 797.374C343.684 797.374 343.687 797.374 343.69 797.374C343.577 798.421 343.468 799.47 343.365 800.521ZM360.793 809.858C361.498 808.791 362.203 807.723 362.906 806.654C363.715 810.506 367.853 809.315 371.276 813.32C371.836 813.156 372.394 812.991 372.952 812.824C374.178 814.472 390.423 821.631 387.629 818.303C386.412 816.888 382.623 816.543 382.343 816.39C381.404 815.882 380.573 814.332 378.916 813.665C377.959 813.282 375.439 813.558 373.516 812.662C369.203 810.677 363.074 803.807 356.113 803.739C355.901 803.19 355.691 802.641 355.483 802.092C351.349 800.092 352.086 801.891 349.078 798.519C343.469 802.396 364.329 806.53 358.343 808.824C358.345 808.825 358.347 808.827 358.35 808.828C359.163 809.175 359.978 809.518 360.793 809.858ZM483.39 843.431C483.573 844.548 489.075 843.319 487.61 845.805C489.441 845.04 491.257 844.261 493.061 843.467C493.063 843.225 493.064 842.982 493.066 842.74C491.321 842.822 489.575 842.889 487.826 842.943C487.849 842.561 487.872 842.178 487.895 841.795C485.205 843.027 474.49 841.3 474.993 839.956C474.355 840.458 473.714 840.959 473.071 841.458C468.144 839.275 463.509 840.286 458.212 837.85C457.704 838.246 457.195 838.641 456.684 839.034C456.469 838.608 456.255 838.181 456.043 837.755C454.036 837.353 452.032 836.932 450.035 836.494C443.173 836.718 455.568 841.187 457.204 841.173C457.417 841.177 457.552 840.195 458.871 840.257C461.192 840.43 473.988 843.232 478.086 842.94C478.05 843.598 478.015 844.256 477.98 844.915C479.792 844.435 481.594 843.94 483.39 843.431ZM323.755 784.901C323.896 784.183 324.038 783.466 324.182 782.75C319.665 780.41 317.442 778.018 317.184 780.582C317.187 780.584 317.189 780.585 317.191 780.587C319.367 782.054 321.555 783.492 323.755 784.901ZM184.661 456.195C183.326 456.109 182.437 458.44 182.932 461.681C183.336 461.588 183.74 461.494 184.145 461.401C183.265 459.623 185.498 457.906 186.086 452.926C185.426 452.812 184.766 452.698 184.105 452.584C184.284 453.79 184.469 454.994 184.661 456.195ZM327.197 787.608C328.035 789.135 332.974 789.512 330.661 787.847C328.909 786.581 326.751 786.793 327.197 787.608ZM686.063 795.491C685.015 795.961 683.968 796.422 682.915 796.881C682.692 797.674 682.465 798.468 682.234 799.262C682.237 799.26 682.239 799.259 682.241 799.258C683.536 798.006 684.804 796.754 686.063 795.491ZM434.35 833.274C430.576 832.434 426.812 831.527 423.061 830.554C422.922 830.901 422.784 831.248 422.646 831.595C426.755 831.344 427.879 833.137 428.738 833.459C428.734 833.458 428.73 833.457 428.726 833.455C431.473 834.481 434.112 835.359 436.708 836.428C435.914 835.379 435.126 834.328 434.35 833.274ZM446.83 838.476C446.706 835.761 445.959 835.341 439.737 835.84C439.896 836.208 440.055 836.575 440.216 836.943C443.286 837.433 445.179 837.199 444.364 838.43C445.187 838.448 446.009 838.463 446.83 838.476ZM388.78 820.163C389.131 821.22 394.749 822.51 394.609 821.995C394.544 821.811 388.095 818.133 388.78 820.163ZM193.735 414.053C193.178 415.25 192.625 416.46 192.08 417.669C192.286 415.911 192.507 414.151 192.74 412.397C193.071 412.95 193.402 413.502 193.735 414.053ZM194.616 399.146C195.243 398.373 196.46 402.002 198.895 396.942C197.574 400.78 196.316 404.665 195.136 408.552C195.348 406.62 195.579 404.685 195.827 402.748C195.078 402.849 194.328 402.951 193.578 403.056C193.916 401.752 194.262 400.448 194.616 399.146ZM197.712 395.578C195.243 397.043 199.174 386.073 199.83 385.158C199.968 384.951 201.657 384.389 202.086 384.108C201.433 385.735 200.792 387.366 200.165 389C200.775 388.607 201.386 388.217 201.997 387.829C201.39 389.784 200.802 391.743 200.233 393.703C200.132 392.738 200.035 391.77 199.943 390.8C199.187 392.386 198.443 393.979 197.712 395.578ZM185.428 440.363C185.774 438.94 186.129 437.52 186.494 436.102C185.776 436.24 185.058 436.38 184.34 436.522C184.15 437.383 183.962 438.244 183.778 439.105C184.327 439.526 184.877 439.945 185.428 440.363ZM192.042 411.238C194.507 414.19 186.099 417.797 190.544 411.99C190.997 411.408 191.803 410.954 192.042 411.238ZM201.823 381.257C201.413 376.128 205.789 379.097 202.75 382.474C202.593 382.644 201.852 381.641 201.823 381.257ZM216.412 350.244C216.607 349.924 218.373 350.159 218.68 346.299C219.131 345.882 219.583 345.466 220.036 345.052C219.995 346.608 214.96 357.064 214.245 354.899C215.047 353.294 215.492 351.847 216.412 350.244ZM205.647 357.548C204.897 359.171 204.16 360.797 203.437 362.428C204.165 362.123 204.893 361.821 205.622 361.522C205.372 362.371 205.126 363.22 204.883 364.07C203.426 365.029 201.972 366.006 200.519 367.002C202.006 363.392 203.541 359.835 205.15 356.279C205.315 356.702 205.481 357.126 205.647 357.548ZM186.38 401.048C188.096 397.98 188.798 393.758 190.87 388.547C190.872 388.545 190.875 388.543 190.877 388.541C190.983 388.282 191.834 388.074 192.18 387.245C192.393 386.511 197.395 372.22 198.117 373.814C196.835 379.597 194.509 380.994 196.516 383.305C195.877 383.355 195.238 383.406 194.598 383.459C191.618 388.325 192.943 390.545 192.56 393.727C192.156 393.568 191.753 393.409 191.349 393.251C190.597 395.208 189.862 397.173 189.143 399.151C189.508 398.962 189.873 398.774 190.239 398.587C189.998 399.288 189.76 399.991 189.523 400.694C187.731 401.996 186.729 404.103 186.38 401.048ZM209.964 350.65C207.743 347.638 217.556 334.526 220.933 328.015C220.566 332.333 216.354 336.738 214.255 340.421C210.245 347.517 214.055 343.185 213.846 344.648C213.745 345.36 209.695 348.409 209.964 350.65ZM183.184 413.243C184.581 409.418 184.534 407.019 186.758 404.04C186.896 404.394 187.034 404.747 187.174 405.099C186.564 406.159 183.095 415.342 183.184 413.243ZM227.507 319.4C222.2 325.31 226.83 323.691 222.747 325.925C224.064 323.58 225.424 321.229 226.791 318.923C227.03 319.082 227.268 319.241 227.507 319.4ZM327.853 802.822C330.621 804.679 333.488 807.136 335.831 807.094C333.997 805.768 332.174 804.424 330.365 803.061C329.528 802.985 328.691 802.905 327.853 802.822ZM246.582 749.559C246.894 750.358 249.623 752.053 249.847 752.292C250.257 752.738 249.827 752.909 249.75 752.992C252.51 755.857 250.997 752.258 253.212 754.205C253.576 754.544 257.866 760.003 259.915 761.963C260.275 762.312 260.634 762.662 260.99 763.01C263.717 765.68 266.232 768.186 267.282 769.157C269.292 771.025 273.637 773.704 277.031 776.648C278.426 777.861 278.379 778.892 279.795 780.098C288.739 787.951 308.153 801.246 316.719 807.326C318.81 808.871 320.346 811.117 321.56 811.789C322.687 812.053 323.814 812.31 324.94 812.561C325.951 817.275 328.543 815.249 331.785 816.809C333.85 817.799 334.272 819.226 334.539 819.379C336.322 820.39 337.441 820.464 338.877 821.182C340.487 821.989 342.528 823.639 343.134 823.872C343.512 824.002 343.041 822.248 349.17 825.513C355.465 828.833 361.669 832.005 368.247 835.025C367.745 830.284 364.714 831.997 361.993 830.877C361.265 830.576 361.996 830.199 361.366 829.931C359.59 829.176 355.979 828.119 354.616 827.254C353.144 826.323 354.359 825.242 352.154 824.74C352.042 824.715 352.068 825.433 351.56 825.29C346.466 823.807 345.486 822.066 339.785 818.835C335.861 816.907 313.269 803.268 312.885 802.229C310.174 797.905 333.266 813.072 336.112 814.596C337.061 815.22 335.685 815.218 336.513 815.854C336.868 816.123 340.935 816.958 344.38 818.723C348.516 820.884 356.51 826.013 360.57 827.902C395.327 844.365 432.001 855.957 470.265 860.733C471.082 860.833 472.248 860.186 474.9 860.482C524.387 866.098 577.103 861.4 624.974 845.088C635.418 841.551 645.336 836.959 655.721 833.05C656.752 831.969 657.774 830.882 658.787 829.791C655.775 831.677 649.35 832.99 648.807 833.184C648.611 833.259 647.64 834.372 645.641 835.143C642.824 836.23 641.385 836.175 641.156 836.266C640.442 836.541 641.127 836.919 640.442 837.18C635.334 839.117 631.439 840.698 626.682 842.319C621.307 844.131 618.249 843.905 614.663 846.264C614.079 845.939 613.497 845.612 612.915 845.285C610.586 848.243 592.719 852.687 585.386 853.944C583.081 854.381 583.319 853.471 582.548 853.626C582.054 853.715 582.473 854.797 576.386 855.691C573.321 856.126 572.389 855.462 570.869 855.74C570.042 855.89 570.304 856.653 569.109 856.843C562.202 857.926 556.49 858.403 549.674 858.956C547.756 859.108 547.672 858.446 547.245 858.496C545.675 858.674 543.027 860.049 538.999 860.333C532.381 860.862 519.135 861.274 513.714 860.663C512.917 860.582 512.261 859.783 511.677 859.791C510.792 859.805 510.436 860.631 510.28 860.634C507.313 860.611 509.11 859.863 507.123 860.016C506.052 860.095 504.913 861.022 502.416 861.049C499.118 861.075 499.812 859.969 498.436 860.025C498.29 860.035 498.212 860.816 496.86 860.778C491.736 860.636 484.298 860.265 479.466 859.773C478.078 859.636 477.101 859.008 475.173 858.787C471.265 858.532 449.221 855.436 447.509 854.623C447.328 854.555 449.479 853.798 446.388 853.235C445.401 853.53 444.411 853.822 443.417 854.109C442.07 853.05 440.735 851.983 439.411 850.908C438.91 853.543 429.991 851.903 430.738 849.263C429.813 848.924 428.888 848.581 427.966 848.234C425.524 849.545 424.376 848.545 420.261 848.558C419.817 847.839 419.377 847.12 418.939 846.399C418.686 846.726 418.432 847.053 418.178 847.379C416.713 844.811 412.817 845.828 412.407 845.713C410.843 845.29 409.838 844.424 409.11 844.214C406.391 843.434 400.319 842.193 397.304 840.759C397.163 840.691 397.601 839.905 396.753 839.488C395.227 838.733 394.623 839.9 393.027 837.688C392.467 837.89 391.905 838.091 391.342 838.29C390.957 837.935 390.572 837.578 390.189 837.222C387.476 836.306 384.77 835.354 382.074 834.369C385.05 833.948 382.592 832.064 379.542 832.073C378.507 832.075 378.935 833.246 378.588 833.251C378.092 833.309 366.495 827.679 366.009 826.733C365.338 826.737 364.667 826.74 363.994 826.741C363.963 826.088 363.933 825.435 363.906 824.783C363.517 824.822 363.129 824.859 362.74 824.896C360.181 822.576 351.398 820.707 350.094 819.779C349.4 819.296 351.21 817.493 347.575 815.81C347.13 816.336 346.685 816.862 346.239 817.387C345.383 817.03 344.528 816.669 343.674 816.304C342.186 815.41 340.574 813.142 340.905 812.408C340.198 812.556 339.49 812.702 338.781 812.846C338.282 810.773 331.418 807.319 328.257 806.473C327.736 805.589 327.22 804.704 326.708 803.817C325.371 803.643 324.031 803.46 322.689 803.267C320.214 801.85 323.251 802.704 322.787 802.304C321.799 801.48 315.517 799.176 317.008 797.752C316.281 797.248 315.556 796.74 314.832 796.229C314.131 796.438 313.428 796.646 312.723 796.851C312.621 794.357 310.031 793.406 306.141 789.615C305.508 789.711 304.873 789.804 304.238 789.896C303.292 788.376 302.358 786.851 301.438 785.32C300.706 785.707 299.974 786.092 299.239 786.474C298.597 786.112 297.956 785.747 297.316 785.379C297.199 783.141 293.984 782.9 293.367 781.496C292.49 779.463 294.421 779.502 297.415 781.602C297.929 780.487 289.264 774.082 287.338 772.471C287.306 772.76 287.274 773.05 287.242 773.339C289.303 774.866 291.374 776.366 293.456 777.838C293.141 781.589 288.31 776.526 285.636 774.713C285.391 774.55 283.359 774.353 280.999 772.108C280.067 771.232 277.625 766.695 277.02 765.992C272.095 760.298 274.399 765.865 270.595 759.215C270.56 760.934 269.324 759.04 267.257 756.743C266.625 756.04 265.916 755.3 265.139 754.616C264.565 754.131 259.195 750.465 258.883 750.165C256.897 748.358 259.939 749.495 257.036 746.924C256.441 746.842 255.846 746.759 255.251 746.674C254.642 746.01 254.039 745.347 253.434 744.675C252.294 738.316 249.628 739.019 248.101 737.746C247.492 737.234 248.821 737.426 247.359 736C246.811 735.461 245.695 735.291 244.336 733.739C240.097 728.861 241.211 725.174 234.996 722.487C234.821 721.473 234.651 720.46 234.487 719.448C233.663 719.302 232.837 719.153 232.012 719C230.554 714.234 230.194 716.595 229.205 715.203C226.57 711.53 221.686 703.734 222.412 702.309C217.634 700.791 218.134 694.933 217.243 693.72C216.442 693.152 215.643 692.581 214.845 692.006C214.618 690.897 214.397 689.789 214.182 688.682C211.793 690.715 211.593 684.397 211.385 683.919C211.101 683.379 206.156 676.424 204.722 673.612C203.247 670.818 201.517 665.521 201.313 665.09C201.062 664.595 197.944 660.153 196.204 656.327C194.484 653.026 187.411 632.461 186.735 634.177C186.883 635.645 187.307 637.662 187.79 639.365C188.928 644.762 201.88 674.238 206.059 681.333C213.703 695.975 223.224 710.366 233.059 723.732C233.637 724.518 233.093 725.122 233.592 725.799C234.35 726.825 236.977 728.877 237.75 729.867C240.633 733.606 244.165 738.008 245.798 739.93C249.425 744.205 251.672 747.404 254.485 750.557C255.366 751.555 260.687 755.753 263.668 759.314C263.792 759.529 263.916 759.744 264.04 759.96C264.351 760.497 264.662 761.034 264.976 761.57C264.606 761.277 264.12 760.89 263.562 760.438C261.27 758.596 257.811 755.677 256.166 754.023C253.117 750.962 252.095 748.861 251.022 747.697C250.111 746.726 245.019 742.089 243.01 739.722C242.382 738.991 242.895 738.299 242.364 737.672C239.483 734.288 235.762 729.692 232.743 727.12C233.902 728.218 228.334 720.044 228.06 719.617C227.532 718.899 226.325 718.58 225.26 717.1C223.221 714.246 224.819 713.678 220.987 711.026C220.769 709.864 220.558 708.704 220.354 707.546C218.459 708.745 213.504 695.684 209.309 693.726C208.897 693.822 217.776 709.342 218.658 710.507C223.382 717.998 231.616 728.132 236.788 735.024C238.295 737.101 242.532 744.153 242.978 744.597C243.657 745.322 243.643 744.147 243.944 744.452C250.158 750.658 246.141 748.386 246.582 749.559ZM187.965 392.068C187.008 394.456 186.074 396.861 185.167 399.279C184.772 398.948 184.377 398.617 183.982 398.286C184.539 397.221 185.101 396.16 185.668 395.102C185.697 394.149 185.729 393.197 185.767 392.242C186.5 392.183 187.232 392.125 187.965 392.068ZM188.296 385.404C188.875 383.218 189.863 383.484 190.097 383.02C190.799 381.637 190.915 380.243 191.493 378.857C193.066 381.361 190.707 384.34 188.296 385.404ZM173.842 429.523C174.073 429.044 177.357 426.386 175.989 422.072C177.452 419.475 178.945 416.904 180.468 414.359C177.988 418.726 177.492 425.574 176.9 427.871C176.67 428.747 175.857 428.73 175.677 429.433C174.645 433.494 175.57 437.831 172.907 437.705C174.468 433.998 173.554 430.128 173.842 429.523ZM181.431 405.379C182.156 404.905 182.882 404.434 183.609 403.967C182.875 406.261 182.166 408.561 181.481 410.866C181.132 410.084 180.787 409.299 180.444 408.512C180.768 407.467 181.097 406.422 181.431 405.379ZM172.748 589.685C172.415 588.221 172.091 586.756 171.776 585.288C171.401 585.454 171.774 587.132 171.651 587.81C171.65 587.807 171.65 587.804 171.649 587.802C171.507 588.558 170.936 588.377 171.003 589.684C171.584 589.685 172.166 589.685 172.748 589.685ZM661.164 830.598C663.558 829.761 684.393 819.092 681.854 818.635C680.643 818.488 673.911 822.762 671.788 823.787C668.949 825.234 660.607 827.434 661.164 830.598ZM697.826 811.395C697.444 809.999 684.765 817.158 683.605 817.996C683.969 818.032 684.601 818.211 685.005 818.106C686.982 817.618 694.964 812.719 697.826 811.395ZM197.638 670.364C197.759 668.973 197.889 667.587 198.027 666.206C197.305 666.908 196.585 667.613 195.867 668.32C196.455 669.004 197.045 669.685 197.638 670.364ZM265.967 761.924C279.931 775.746 295.091 788.469 311.162 799.8C309.516 799.131 307.871 798.448 306.226 797.749C292.532 787.694 278.882 775.625 266.73 764.635C266.472 763.732 266.218 762.828 265.967 761.924ZM168.412 433.945C167.323 438.877 167.193 443.121 165.134 448.334C164.987 442.974 167.132 440.757 166.619 435.448C166.62 435.445 166.62 435.442 166.621 435.439C167.217 434.939 167.814 434.44 168.412 433.945ZM161.714 545.94C160.893 544.481 160.08 543.011 159.277 541.532C159.44 543.382 159.618 545.23 159.81 547.076C160.444 546.696 161.079 546.317 161.714 545.94ZM411.006 852.163C416.485 852.356 428.981 858.363 433.642 857.563C433.937 857.51 431.615 856.221 435.964 855.737C432.857 855.34 430.643 855.109 430.149 856.154C429.333 855.562 428.524 854.969 427.718 854.373C426.156 854.282 424.593 854.181 423.028 854.068C423.475 853.021 423.345 853.055 420.859 853.184C419.892 852.627 418.927 852.066 417.967 851.501C417.399 851.837 416.829 852.171 416.257 852.505C415.539 851.607 414.826 850.707 414.119 849.806C410.432 849.47 412.183 851.334 411.006 852.163ZM393.388 846.08C394.072 846.797 417.814 853.455 407.812 847.962C405.032 847.166 402.259 846.336 399.494 845.47C400.572 849.772 394.151 844.045 393.595 843.738C390.806 842.352 386.798 841.781 384.711 840.913C382.918 840.17 382.096 839.122 380.826 838.627C376.508 836.966 369.8 834.051 368.247 835.025C371.539 836.536 374.91 838.004 378.399 839.398C382.082 840.855 384.847 843.555 392.548 844.247C394.209 845.075 393.2 845.945 393.388 846.08ZM159.052 536.887C160.579 536.953 159.625 527.648 159.041 527.612C158.679 527.61 158.85 530.662 158.744 531.106C158.744 531.109 158.745 531.112 158.745 531.115C158.697 531.3 158.051 530.411 157.973 531.858C158.321 533.539 158.681 535.215 159.052 536.887ZM628.496 847.295C630.078 847.984 657.073 837.14 657.567 836.155C657.733 835.956 657.284 835.738 657.279 835.5C651.585 839.368 642.081 841.615 636.039 843.693C634.353 844.279 635.062 844.673 634.971 844.719C634.967 844.72 634.963 844.722 634.959 844.723C634.003 845.078 629.199 845.172 628.496 847.295ZM442.878 858.841C441.718 858.359 440.562 857.871 439.409 857.378C439.004 857.78 438.598 858.182 438.19 858.583C438.193 858.584 438.196 858.585 438.198 858.585C439.759 858.681 441.319 858.766 442.878 858.841ZM485.028 866.385C484.754 866.025 484.482 865.665 484.21 865.304C481.114 864.999 478.024 864.654 474.94 864.269C475.272 864.115 475.604 863.96 475.935 863.804C471.331 862.793 469.262 863.711 466.798 863.217C466.801 863.217 466.804 863.218 466.806 863.218C466.542 863.163 466.312 862.425 465.324 862.266C463.052 861.916 456.612 860.654 455.714 861.207C453.796 862.46 467.033 863.767 469.485 864.073C470.59 864.243 471.854 865.012 472.53 865.104C473.271 865.203 474.373 864.497 476.173 864.714C476.694 864.788 482.468 866.337 485.028 866.385ZM539.943 865.609C538.933 864.923 536.988 865.787 536.245 865.708C536.069 865.689 537.39 864.971 535.729 864.883C535.289 865.344 534.847 865.804 534.403 866.263C536.252 866.059 538.098 865.841 539.943 865.609ZM157.485 521.152C157.322 521.428 157.578 526.478 157.701 526.715C159.208 529.665 158.637 519.251 157.485 521.152ZM174.543 395.171C171.691 396.661 183.211 371.279 184.416 368.923C185.514 369.539 181.817 375.107 184.741 372.601C182.572 375.235 179.734 383.915 178.765 385.822C178.159 386.979 177.022 386.914 176.922 387.087C176.525 387.769 175.462 394.614 174.543 395.171ZM194.858 348.563C193.456 350.801 192.08 353.054 190.729 355.322C191.938 352.462 193.188 349.612 194.478 346.774C194.603 347.371 194.73 347.967 194.858 348.563ZM195.855 345.353C194.713 344.842 199.725 337.394 200.653 335.222C201.182 338.547 197.359 341.451 195.855 345.353ZM154.85 487.454C153.793 491.542 157.44 493.499 156.093 488.414C156.048 488.26 154.903 487.285 154.85 487.454ZM410.725 857.568C411.386 857.816 419.587 861.377 420.246 860.904C422.298 859.472 416.508 858.717 414.843 857.477C412.169 855.482 416.827 855.86 409.353 854.375C409.761 854.098 410.168 853.82 410.574 853.542C406.379 852.138 406.979 855.086 406.114 855.179C405.848 855.208 403.255 854.153 402.725 854.157C396.059 854.26 410.092 857.431 410.725 857.568ZM162.632 589.204C163.397 597.492 164.164 593.674 166.156 601.869C166.997 601.938 163.537 590.112 162.632 589.204ZM337.251 824.879C344.84 828.753 350.617 832.975 358.43 835.084C358.869 833.006 335.566 823.461 337.251 824.879ZM719.138 809.936C689.45 825.549 655.772 843.7 621.88 854.217C618.204 855.364 617.59 854.589 616.286 855.081C615.429 855.4 615.787 856.054 614.622 856.396C572.56 868.672 530.057 873.767 488.078 870.358C485.41 870.199 472.783 867.409 469.77 869.352C467.473 870.888 476.885 870.585 478.418 870.718C479.575 870.842 479.546 871.683 480.32 871.758C481.142 871.836 480.515 871.203 481.469 871.28C485.51 871.604 489.907 872.142 493.571 872.296C529.488 873.809 564.618 870.746 599.409 862.464C603.613 861.447 602.91 862.3 603.123 862.253C603.125 862.251 603.128 862.249 603.13 862.246C625.746 856.678 650.259 846.288 672.53 836.021C688.304 828.864 703.545 820.579 718.176 811.198C718.498 810.778 718.818 810.357 719.138 809.936ZM394.093 849.684C395.284 852.779 396.564 850.579 403.568 853.939C404.298 853.718 405.026 853.494 405.752 853.269C401.848 852.141 397.952 850.943 394.081 849.68C394.085 849.681 394.089 849.683 394.093 849.684ZM442.87 864.032C443.466 867.733 460.991 868.407 468.634 869.897C470.258 868.394 458.955 867.654 456.356 867C455.044 866.71 448.342 863.788 442.867 863.674C442.868 863.793 442.869 863.912 442.87 864.032ZM161.511 421.755C161.303 423.003 161.101 424.253 160.905 425.505C162.008 422.517 163.145 419.562 164.322 416.617C162.795 421.404 161.366 426.23 160.036 431.091C159.544 430.021 159.057 428.947 158.575 427.868C159.536 425.818 160.516 423.774 161.511 421.755ZM158.27 437.781C159.803 429.1 159.771 438.486 158.542 440.469C157.792 441.663 158.116 438.669 158.27 437.781ZM153.225 460.226C152.52 455.958 153.801 447.681 155.783 451.019C153.922 455.227 154.436 458.207 152.953 464.525C152.596 463.529 152.242 462.53 151.893 461.528C151.894 461.524 151.894 461.52 151.895 461.515C152.337 461.084 152.781 460.654 153.225 460.226ZM157.613 433.524C160.194 428.161 156.335 444.455 156.463 439.117C156.459 438.865 157.502 433.734 157.613 433.524ZM688.864 831.51C689.089 830.464 685.171 832.6 683.831 833.234C678.002 836.038 670.761 839.98 664.59 842.635C665.161 842.671 665.733 842.706 666.305 842.739C673.939 839.265 681.495 835.503 688.864 831.51ZM645.248 850.718C640.945 852.372 636.633 853.937 632.267 855.428C631.862 855.568 630.174 856.876 631.651 856.557C636.241 854.696 640.754 852.756 645.248 850.718ZM365.474 843.556C368.529 845.428 358.236 843.363 359.722 841.256C361.631 842.038 363.553 842.807 365.474 843.556ZM335.621 829.732C337.676 830.606 339.735 831.46 341.797 832.293C341.663 832.548 341.53 832.804 341.397 833.059C339.463 831.969 337.538 830.86 335.621 829.732ZM704.876 822.931C702.363 823.321 697.632 826.31 694.569 828.015C697.092 827.568 701.848 824.298 704.876 822.931ZM414.919 862.444C414.812 861.779 428.37 865.476 423.367 865.404C420.538 864.452 417.722 863.465 414.919 862.444ZM442.536 870.052C439.538 869.61 437.292 868.889 438.119 867.986C439.676 868.36 441.235 868.725 442.795 869.079C442.709 869.403 442.623 869.727 442.536 870.052ZM149.423 475.64C149.043 480.719 148.768 485.802 148.599 490.886C148.32 490.683 148.043 490.479 147.765 490.275C147.934 485.363 148.202 480.451 148.568 475.543C148.853 475.575 149.138 475.608 149.423 475.64ZM708.695 823.619C711.586 821.599 714.459 819.531 717.291 817.427C714.245 819.214 711.168 820.96 708.082 822.652C708.285 822.977 708.487 823.303 708.69 823.628C708.691 823.625 708.693 823.622 708.695 823.619ZM158.877 406.191C153.314 420.998 157.337 401.184 160.588 397.841C160.588 397.837 160.588 397.832 160.588 397.827C160.864 397.534 161.437 398.52 161.944 398.048C161.098 399.454 160.26 400.867 159.431 402.288C159.463 403.822 159.504 405.354 159.555 406.887C159.242 407.295 158.929 407.705 158.618 408.116C158.702 407.474 158.789 406.833 158.877 406.191ZM181.083 346.803C187.639 334.121 182.863 348.055 178.441 353.723C178.102 353.512 180.478 347.973 181.083 346.803ZM166.772 381.336C166.173 383.509 165.594 385.684 165.037 387.862C164.714 388.053 164.391 388.245 164.069 388.438C164.408 386.725 164.757 385.024 165.12 383.317C165.669 382.654 166.219 381.994 166.772 381.336ZM144.533 452.155C143.73 455.734 145.653 460.688 146.766 449.063C146.481 449.022 146.195 448.981 145.91 448.94C145.879 449.408 145.928 450.8 145.895 450.87C145.791 451.071 144.878 450.668 144.533 452.155ZM187.008 319.67C187.121 319.267 184.614 317.489 189.527 315.403C190.033 314.189 190.546 312.975 191.067 311.763C191.814 311.827 192.561 311.892 193.308 311.959C190.228 315.97 191.142 317.137 190.977 317.459C190.235 318.953 190.265 317.539 189.708 318.458C188.254 320.841 185.538 326.584 185.228 323.101C185.121 321.844 186.892 320.083 187.008 319.67ZM180.628 327.44C181.145 327.024 180.977 329.185 181.42 328.898C181.797 328.639 185.551 323.772 186.06 325.947C185.518 326.782 184.979 327.619 184.444 328.458C183.921 328.554 183.398 328.651 182.875 328.749C182.745 329.778 182.62 330.805 182.499 331.831C180.839 332.77 178.052 335.227 179.253 331.198C178.614 332.576 177.985 333.956 177.36 335.349C177.429 336.273 177.501 337.195 177.577 338.115C177.104 337.411 176.633 336.706 176.163 335.998C177.622 333.112 179.102 330.275 180.628 327.44ZM206.059 287.76C206.261 288.135 206.463 288.51 206.665 288.884C209.339 283.915 214.402 276.91 213.331 282.264C208.977 288.328 204.735 294.619 200.752 300.935C200.236 301.188 199.721 301.442 199.206 301.697C203.233 297.675 198.357 296.449 202.266 293.178C202.932 292.633 202.896 295.538 205.028 290.688C204.608 290.616 204.186 290.544 203.765 290.472C204.525 289.565 205.29 288.661 206.059 287.76ZM236.964 251.165C230.096 257.776 236.174 249.11 238.26 248.637C238.258 248.639 238.256 248.641 238.254 248.643C243.875 247.343 235.646 253.792 235.26 254.29C234.709 254.937 235.099 257.856 229.569 259.09C232.015 256.393 234.465 253.768 236.964 251.165ZM216.194 274.392C216.636 273.715 216.812 274.424 217.021 274.147C217.023 274.144 217.025 274.142 217.027 274.139C220.089 270 227.55 260.449 229.864 260.707C227.396 263.589 217.053 276.838 215.478 276.933C215.713 276.086 215.952 275.239 216.194 274.392ZM196.362 304.374C193.634 306.358 197.361 300.311 198.863 299.11C199.155 298.896 199.18 302.327 196.362 304.374ZM133.249 532.859C134.412 539.731 134.561 530.603 135.894 533.674C135.715 532.366 135.544 531.057 135.379 529.747C134.665 530.778 133.955 531.816 133.249 532.859ZM272.351 808.118C273.536 809.252 273.371 808.224 273.488 808.305C274.309 808.994 274.744 810.066 275.104 810.276C281.77 814.087 278.162 810.495 278.189 810.348C278.491 809.711 280.539 810.302 278.874 807.99C277.42 807.15 275.968 806.298 274.519 805.435C274.114 804.614 273.726 803.804 273.335 802.987C270.284 801.528 273.45 804.438 273.146 805.586C273.026 806.04 270.281 804.457 272.351 808.118ZM131.901 545.47C133.205 546.493 134.988 549.075 135.934 546.273C135.933 546.27 135.933 546.267 135.933 546.264C136.105 545.746 136.041 543.713 136.299 543.065C134.33 538.775 132.793 540.576 131.901 545.47ZM248.307 789.854C246.532 787.778 244.777 785.683 243.041 783.567C243.583 783.085 244.124 782.604 244.666 782.122C245.558 783.28 246.457 784.432 247.361 785.579C247.955 785.695 248.549 785.809 249.142 785.922C248.422 784.086 247.717 782.248 247.027 780.407C246.375 779.916 245.725 779.422 245.075 778.925C243.997 778.102 242.923 777.273 241.855 776.439C242.275 777.413 242.7 778.387 243.13 779.361C239.117 775.897 241.179 775.483 238.664 771.89C237.156 771.277 235.65 770.654 234.146 770.021C233.17 767.983 232.228 765.956 231.287 763.904C228.635 761.415 228.042 761.505 229.094 763.846C227.232 763.078 226.958 760.679 225.269 759.274C225.13 759.157 224.726 759.953 224.615 759.84C216.875 751.647 219.049 750.679 217.963 749.238C217.209 748.222 212.922 745.169 212.483 745.405C211.895 745.716 216.32 755.776 206.081 742.656C209.805 750.649 217.564 757.055 215.639 750.451C217.096 752.77 225.295 761.397 225.774 762.001C226.414 762.915 225.389 763.297 226.293 764.36C226.838 764.985 229.992 765.082 232.879 771.2C233.724 771.545 234.569 771.887 235.416 772.226C235.718 773.006 236.023 773.786 236.332 774.566C234.414 774.183 232.495 773.783 230.575 773.369C235.189 776.748 237.358 781.334 240.663 783.337C241.103 783.604 241.563 783.823 242.05 783.986C244.289 786.521 245.319 787.813 243.588 787.511C244.315 788.22 245.044 788.926 245.776 789.628C246.62 789.706 247.464 789.782 248.307 789.854ZM136.037 565.59C135.41 569.031 137.998 569.833 138.051 569.303C138.346 566.338 136.369 563.807 136.037 565.59ZM268.537 803.303C266.145 800.483 263.792 797.629 261.479 794.741C260.971 795.313 260.463 795.884 259.955 796.456C262.792 798.787 265.653 801.07 268.537 803.303ZM131.473 531.944C132.026 531.575 132.58 531.208 133.134 530.842C130.823 526.955 133.687 522.855 133.013 520.917C132.866 520.493 131.877 521.385 131.686 522.211C131.544 522.721 131.215 531.245 131.473 531.944ZM158.117 368.534C157.923 370.066 157.74 371.596 157.566 373.125C156.993 372.817 156.421 372.509 155.848 372.2C156.001 371.467 156.157 370.733 156.315 370C156.915 369.509 157.515 369.02 158.117 368.534ZM153.171 384.796C152.252 387.294 151.359 389.799 150.493 392.312C153.114 382.491 150.205 390.308 151.399 384.183C151.99 384.387 152.58 384.592 153.171 384.796ZM144.017 410.16C143.73 409.744 143.444 409.326 143.158 408.908C143.859 406.328 144.588 403.754 145.343 401.186C143.583 402.433 141.829 403.699 140.081 404.984C139.811 405.937 139.544 406.891 139.282 407.845C140.858 408.621 142.437 409.393 144.017 410.16ZM330.908 850.605C332.32 851.405 337.877 852.985 337.859 852.483C336.013 850.939 334.194 849.385 332.397 847.818C332.024 848.488 331.651 849.158 331.278 849.828C331.168 849.335 331.058 848.842 330.95 848.349C329.646 847.969 328.342 847.581 327.037 847.185C326.775 846.273 326.517 845.361 326.262 844.45C325.302 844.787 324.339 845.122 323.373 845.452C328.324 849.806 328.809 848.479 329.971 849.138C330.564 849.467 330.717 850.089 330.816 850.413C330.847 850.477 330.877 850.541 330.908 850.605ZM263.451 805.396C269.206 810.517 273.924 811.689 277.283 816.44C276.577 811.556 256.485 799.682 252.698 791.804C251.692 791.657 250.685 791.505 249.677 791.349C253.246 793.998 254.685 796.892 256.202 798.482C257.397 799.731 257.665 799.158 257.757 799.252C257.762 799.256 257.766 799.26 257.771 799.264C260.621 802.116 261.186 803.365 263.451 805.396ZM128.374 526.401C127.546 528.505 127.835 532.124 129.167 532.085C129.437 530.058 129.723 528.036 130.025 526.018C129.702 526.444 128.515 526.043 128.374 526.401ZM139.629 412.22C138.797 413.676 138.243 417.472 139.755 416.154C140.021 415.917 140.177 412.048 141.636 414.712C142.52 411.143 140.104 411.392 139.629 412.22ZM181.502 703.464C180.787 702.311 180.077 701.156 179.375 699.997C178.752 699.988 178.129 699.978 177.506 699.966C178.832 701.143 180.164 702.309 181.502 703.464ZM127.109 508.971C129.739 507.181 127.208 504.072 129.449 500.738C129.495 499.493 129.547 498.248 129.606 497.004C129.606 497.001 129.606 496.998 129.606 496.995C128.891 496.937 128.176 496.879 127.461 496.82C127.28 500.868 127.163 504.919 127.109 508.971ZM230.627 771.948C230.306 771.111 229.989 770.274 229.676 769.437C228.395 768.611 227.112 767.769 225.826 766.912C226.156 767.7 226.491 768.489 226.826 769.274C228.088 770.173 229.355 771.064 230.627 771.948ZM127.566 486.946C126.99 491.313 129.191 493.053 129.497 487.486C129.636 485.143 128.196 482.382 127.566 486.946ZM408.604 881.142C407.214 880.546 405.829 879.942 404.448 879.33C403.824 879.646 403.198 879.961 402.571 880.274C404.576 880.578 406.594 880.869 408.604 881.142ZM145.652 392.327C146.056 392.641 146.46 392.953 146.865 393.266C146.37 394.508 145.881 395.753 145.398 397.001C145.04 396.541 144.683 396.079 144.327 395.617C144.764 394.518 145.206 393.422 145.652 392.327ZM399.03 877.988C397.916 877.545 396.803 877.097 395.693 876.643C394.856 876.619 394.019 876.592 393.182 876.562C394.175 877.133 395.171 877.699 396.17 878.261C397.125 878.174 398.078 878.083 399.03 877.988ZM132.455 445.695C131.595 447.271 132.336 454.187 133.731 448.286C134.641 444.536 132.587 445.459 132.455 445.695ZM133.5 436.635C131.249 442.757 137.541 439.044 135.537 430.864C134.485 438.511 133.648 436.279 133.5 436.635ZM145.464 381.081C145.521 380.928 146.321 381.065 146.781 379.852C148.428 375.476 150.914 369.814 152.199 366.722C155.038 359.23 164.115 336.205 167.653 334.764C168.358 334.451 169.038 336.335 169.215 336.152C169.716 335.611 170.96 331.645 171.568 332.812C169.715 336.372 167.922 339.955 166.188 343.559C165.929 342.347 165.677 341.13 165.43 339.91C161.451 349.119 162.878 346.12 163.153 349.419C161.868 350.693 160.59 351.978 159.32 353.275C158.412 356.918 157.563 360.562 156.771 364.204C156.643 363.252 156.518 362.299 156.397 361.343C153.465 366.141 154.589 364.954 154.544 368.203C154.096 368.033 153.649 367.864 153.202 367.694C152.327 373.126 150.651 373.6 150.218 374.698C149.355 376.992 153.597 381.642 145.369 388.56C146.744 393.075 141.531 391.321 143.519 394.341C138.668 399.734 143.376 388.065 145.465 382.495C145.466 382.492 145.467 382.489 145.468 382.486C145.623 382.065 144.903 382.571 145.464 381.081ZM138.409 414.254C136.943 409.763 132.985 425.031 137.704 420.787C137.995 420.063 138.288 419.34 138.583 418.618C138.518 417.161 138.46 415.705 138.411 414.245C138.411 414.248 138.41 414.251 138.409 414.254ZM128.088 560.601C131.122 574.889 131.363 566.48 129.311 561.802C128.906 560.865 128.461 560.378 128.088 560.601ZM270.745 813.896C271.098 813.797 271.451 813.698 271.804 813.598C267.761 810.766 261.371 803.828 260.156 805.413C263.648 808.311 267.137 811.106 270.745 813.896ZM240.915 789.199C241.58 790.029 244.489 793.222 244.635 792.315C243.656 790.642 242.689 788.964 241.735 787.28C240.884 786.91 240.032 786.537 239.18 786.159C239.96 787.097 240.732 788.976 240.915 789.199Z" fill="black"/>
<path d="M616.4 182.32C616.4 163.011 616.4 153.357 622.398 147.358C628.397 141.36 638.051 141.36 657.36 141.36H698.32C717.629 141.36 727.283 141.36 733.282 147.358C739.28 153.357 739.28 163.011 739.28 182.32V223.28C739.28 242.589 739.28 252.243 733.282 258.242C727.283 264.24 717.629 264.24 698.32 264.24H657.36C638.051 264.24 628.397 264.24 622.398 258.242C616.4 252.243 616.4 242.589 616.4 223.28V182.32Z" fill="black"/>
<path d="M759.76 325.68C759.76 306.371 759.76 296.717 765.758 290.718C771.757 284.72 781.411 284.72 800.72 284.72H841.68C860.989 284.72 870.643 284.72 876.642 290.718C882.64 296.717 882.64 306.371 882.64 325.68V366.64C882.64 385.949 882.64 395.603 876.642 401.602C870.643 407.6 860.989 407.6 841.68 407.6H800.72C781.411 407.6 771.757 407.6 765.758 401.602C759.76 395.603 759.76 385.949 759.76 366.64V325.68Z" fill="black"/>
</svg>
