<svg width="1024" height="1024" viewBox="0 0 1024 1024" fill="none" xmlns="http://www.w3.org/2000/svg">
<path d="M329.68 182.32C329.68 163.011 329.68 153.357 335.678 147.358C341.677 141.36 351.331 141.36 370.64 141.36H411.6C430.909 141.36 440.563 141.36 446.561 147.358C452.56 153.357 452.56 163.011 452.56 182.32V223.28C452.56 242.589 452.56 252.243 446.561 258.242C440.563 264.24 430.909 264.24 411.6 264.24H370.64C351.331 264.24 341.677 264.24 335.678 258.242C329.68 252.243 329.68 242.589 329.68 223.28V182.32Z" fill="black" fill-opacity="0.4"/>
<path d="M759.76 612.4C759.76 593.091 759.76 583.437 765.758 577.438C771.757 571.44 781.411 571.44 800.72 571.44H841.68C860.989 571.44 870.643 571.44 876.642 577.438C882.64 583.437 882.64 593.091 882.64 612.4V653.36C882.64 672.669 882.64 682.323 876.642 688.322C870.643 694.32 860.989 694.32 841.68 694.32H800.72C781.411 694.32 771.757 694.32 765.758 688.322C759.76 682.323 759.76 672.669 759.76 653.36V612.4Z" fill="black" fill-opacity="0.4"/>
</svg>
