<svg width="1024" height="1024" viewBox="0 0 1024 1024" fill="none" xmlns="http://www.w3.org/2000/svg">
<path d="M473.04 182.32C473.04 163.011 473.04 153.357 479.038 147.358C485.037 141.36 494.691 141.36 514 141.36H554.96C574.269 141.36 583.923 141.36 589.922 147.358C595.92 153.357 595.92 163.011 595.92 182.32V223.28C595.92 242.589 595.92 252.243 589.922 258.242C583.923 264.24 574.269 264.24 554.96 264.24H514C494.691 264.24 485.037 264.24 479.038 258.242C473.04 252.243 473.04 242.589 473.04 223.28V182.32Z" fill="black" fill-opacity="0.8"/>
<path d="M759.76 469.04C759.76 449.731 759.76 440.077 765.758 434.078C771.757 428.08 781.411 428.08 800.72 428.08H841.68C860.989 428.08 870.643 428.08 876.642 434.078C882.64 440.077 882.64 449.731 882.64 469.04V510C882.64 529.309 882.64 538.963 876.642 544.962C870.643 550.96 860.989 550.96 841.68 550.96H800.72C781.411 550.96 771.757 550.96 765.758 544.962C759.76 538.963 759.76 529.309 759.76 510V469.04Z" fill="black" fill-opacity="0.8"/>
</svg>
