<svg width="1024" height="1024" viewBox="0 0 1024 1024" fill="none" xmlns="http://www.w3.org/2000/svg">
<path d="M866 605C866 640.394 866 658.092 855.046 669.046C844.092 680 826.394 680 791 680C755.606 680 737.908 680 726.954 669.046C716 658.092 716 640.394 716 605C716 569.606 716 551.908 726.954 540.954C737.908 530 755.606 530 791 530C826.394 530 844.092 530 855.046 540.954C866 551.908 866 569.606 866 605Z" fill="#41B571"/>
<path d="M866 233C866 268.394 866 286.092 855.046 297.046C844.092 308 826.394 308 791 308C755.606 308 737.908 308 726.954 297.046C716 286.092 716 268.394 716 233C716 197.606 716 179.908 726.954 168.954C737.908 158 755.606 158 791 158C826.394 158 844.092 158 855.046 168.954C866 179.908 866 197.606 866 233Z" fill="#41B571"/>
<path d="M308 791C308 826.394 308 844.092 297.046 855.046C286.092 866 268.394 866 233 866C197.606 866 179.908 866 168.954 855.046C158 844.092 158 826.394 158 791C158 755.606 158 737.908 168.954 726.954C179.908 716 197.606 716 233 716C268.394 716 286.092 716 297.046 726.954C308 737.908 308 755.606 308 791Z" fill="#41B571"/>
</svg>
