<svg width="1024" height="1024" viewBox="0 0 1024 1024" fill="none" xmlns="http://www.w3.org/2000/svg">
<path d="M866 791C866 826.394 866 844.092 855.046 855.046C844.092 866 826.394 866 791 866C755.606 866 737.908 866 726.954 855.046C716 844.092 716 826.394 716 791C716 755.606 716 737.908 726.954 726.954C737.908 716 755.606 716 791 716C826.394 716 844.092 716 855.046 726.954C866 737.908 866 755.606 866 791Z" fill="#166E3A"/>
<path d="M866 419C866 454.394 866 472.092 855.046 483.046C844.092 494 826.394 494 791 494C755.606 494 737.908 494 726.954 483.046C716 472.092 716 454.394 716 419C716 383.606 716 365.908 726.954 354.954C737.908 344 755.606 344 791 344C826.394 344 844.092 344 855.046 354.954C866 365.908 866 383.606 866 419Z" fill="#166E3A"/>
<path d="M680 419C680 454.394 680 472.092 669.046 483.046C658.092 494 640.394 494 605 494C569.606 494 551.908 494 540.954 483.046C530 472.092 530 454.394 530 419C530 383.606 530 365.908 540.954 354.954C551.908 344 569.606 344 605 344C640.394 344 658.092 344 669.046 354.954C680 365.908 680 383.606 680 419Z" fill="#166E3A"/>
<path d="M494 419C494 454.394 494 472.092 483.046 483.046C472.092 494 454.394 494 419 494C383.606 494 365.908 494 354.954 483.046C344 472.092 344 454.394 344 419C344 383.606 344 365.908 354.954 354.954C365.908 344 383.606 344 419 344C454.394 344 472.092 344 483.046 354.954C494 365.908 494 383.606 494 419Z" fill="#166E3A"/>
<path d="M494 605C494 640.394 494 658.092 483.046 669.046C472.092 680 454.394 680 419 680C383.606 680 365.908 680 354.954 669.046C344 658.092 344 640.394 344 605C344 569.606 344 551.908 354.954 540.954C365.908 530 383.606 530 419 530C454.394 530 472.092 530 483.046 540.954C494 551.908 494 569.606 494 605Z" fill="#166E3A"/>
<path d="M680 791C680 826.394 680 844.092 669.046 855.046C658.092 866 640.394 866 605 866C569.606 866 551.908 866 540.954 855.046C530 844.092 530 826.394 530 791C530 755.606 530 737.908 540.954 726.954C551.908 716 569.606 716 605 716C640.394 716 658.092 716 669.046 726.954C680 737.908 680 755.606 680 791Z" fill="#166E3A"/>
<path d="M494 791C494 826.394 494 844.092 483.046 855.046C472.092 866 454.394 866 419 866C383.606 866 365.908 866 354.954 855.046C344 844.092 344 826.394 344 791C344 755.606 344 737.908 354.954 726.954C365.908 716 383.606 716 419 716C454.394 716 472.092 716 483.046 726.954C494 737.908 494 755.606 494 791Z" fill="#166E3A"/>
</svg>
